<svg xmlns="http://www.w3.org/2000/svg" viewBox="0 0 1000 1000"><defs><style>.cls-1,.cls-14,.cls-2,.cls-4,.cls-5{fill:none;}.cls-1,.cls-14,.cls-2{stroke:#f2f2f2;}.cls-1,.cls-14,.cls-2,.cls-4{stroke-miterlimit:10;}.cls-2{stroke-width:2px;}.cls-10,.cls-11,.cls-3,.cls-8{fill:#f2f2f2;}.cls-4,.cls-5{stroke:#fff;stroke-width:3px;}.cls-5{stroke-linecap:round;stroke-linejoin:round;opacity:0.43;}.cls-6{fill:#666;}.cls-7{fill:#fff;}.cls-10,.cls-11,.cls-8{font-size:146.64px;font-family:BurenoRegular, Bureno Regular;}.cls-8{letter-spacing:0.15em;}.cls-11,.cls-9{letter-spacing:0.05em;}.cls-10,.cls-13{letter-spacing:0.05em;}.cls-12{letter-spacing:0.16em;}.cls-14{stroke-width:4px;}</style></defs><title>smores_White</title><g id="Stripes"><path class="cls-1" d="M837.61,640v-8.52H854a127.18,127.18,0,0,0,20.34-25.1,138.85,138.85,0,0,0-.18-148.12A126.19,126.19,0,0,0,854,433.45H837.61v-8.52h19.58l1.19,1c.47.4,11.71,9.9,23,27.8a147.36,147.36,0,0,1,0,157.49c-11.3,17.9-22.54,27.4-23,27.8l-1.19,1Z"/><path class="cls-2" d="M837.61,429.19h18s44.29,37.05,44.29,103.28-44.29,103.28-44.29,103.28h-18"/><path class="cls-1" d="M163,640v-8.52H146.61a127.18,127.18,0,0,1-20.34-25.1,138.85,138.85,0,0,1,.18-148.12,126.19,126.19,0,0,1,20.17-24.82H163v-8.52H143.44l-1.19,1c-.47.4-11.71,9.9-23,27.8a147.36,147.36,0,0,0,0,157.49c11.3,17.9,22.54,27.4,23,27.8l1.19,1Z"/><path class="cls-2" d="M163,429.19H145s-44.29,37.05-44.29,103.28S145,635.74,145,635.74h18"/><path class="cls-3" d="M796.11,422.72l-8.71,3.05v5.3l16.83-5.89A18.3,18.3,0,0,1,796.11,422.72Z"/><path class="cls-3" d="M787.39,656.12l5.19,2.26a17.54,17.54,0,0,1,4.77-3.38l-10-4.34Z"/><path class="cls-3" d="M215.65,426.63l-9.7-3.38a18.44,18.44,0,0,1-9.73,1.91l19.43,6.76Z"/><path class="cls-3" d="M210.65,658.56l5-2.19v-5.46L206,655.15A17.51,17.51,0,0,1,210.65,658.56Z"/><path class="cls-4" d="M675.05,291.87h0l-37.5,51.36"/><line class="cls-4" x1="697.65" y1="298.45" x2="653.97" y2="351.28"/><line class="cls-4" x1="721.93" y1="306.6" x2="673" y2="357.51"/><line class="cls-4" x1="746.96" y1="316.28" x2="692.66" y2="364.92"/><line class="cls-4" x1="772.67" y1="327.74" x2="712.92" y2="373.69"/><line class="cls-4" x1="798.93" y1="341.23" x2="733.69" y2="384.04"/><line class="cls-4" x1="787.39" y1="378.15" x2="825.43" y2="357.08"/><line class="cls-4" x1="837.23" y1="411.83" x2="771.18" y2="436.4"/><line class="cls-4" x1="837.23" y1="439.8" x2="771.18" y2="458.9"/><line class="cls-4" x1="837.23" y1="466.59" x2="771.18" y2="480.44"/><line class="cls-4" x1="837.23" y1="492.56" x2="771.18" y2="501.31"/><line class="cls-4" x1="771.18" y1="521.77" x2="837.23" y2="518.01"/><line class="cls-4" x1="837.23" y1="543.24" x2="771.18" y2="542.06"/><line class="cls-4" x1="837.23" y1="568.55" x2="771.18" y2="562.4"/><line class="cls-4" x1="837.23" y1="594.21" x2="771.18" y2="583.03"/><line class="cls-4" x1="837.23" y1="620.52" x2="771.18" y2="604.19"/><line class="cls-4" x1="837.23" y1="647.84" x2="771.18" y2="626.15"/><line class="cls-4" x1="796.99" y1="715.76" x2="747.34" y2="685.88"/><line class="cls-4" x1="770.93" y1="729.02" x2="726.31" y2="697.39"/><line class="cls-4" x1="745.57" y1="740.23" x2="705.66" y2="707.18"/><line class="cls-4" x1="721.04" y1="749.65" x2="685.53" y2="715.47"/><line class="cls-4" x1="697.39" y1="757.56" x2="666" y2="722.47"/><line class="cls-4" x1="674.6" y1="764.18" x2="647.08" y2="728.34"/><line class="cls-4" x1="652.62" y1="769.68" x2="628.76" y2="733.25"/><line class="cls-4" x1="631.38" y1="774.2" x2="610.98" y2="737.32"/><line class="cls-4" x1="610.79" y1="777.9" x2="593.7" y2="740.65"/><line class="cls-4" x1="590.76" y1="780.83" x2="576.83" y2="743.3"/><line class="cls-4" x1="571.19" y1="783.09" x2="560.31" y2="745.36"/><line class="cls-4" x1="551.99" y1="784.75" x2="544.09" y2="746.88"/><line class="cls-4" x1="533.07" y1="785.86" x2="528.07" y2="747.9"/><line class="cls-4" x1="514.32" y1="786.42" x2="512.18" y2="748.44"/><line class="cls-4" x1="495.65" y1="786.49" x2="496.36" y2="748.54"/><line class="cls-4" x1="476.96" y1="786.12" x2="480.51" y2="748.23"/><line class="cls-4" x1="464.57" y1="747.45" x2="458.15" y2="785.23"/><line class="cls-4" x1="439.12" y1="783.8" x2="448.46" y2="746.19"/><line class="cls-4" x1="419.79" y1="781.77" x2="432.09" y2="744.4"/><line class="cls-4" x1="400.05" y1="779.11" x2="415.41" y2="742.05"/><line class="cls-4" x1="379.82" y1="775.74" x2="398.34" y2="739.07"/><line class="cls-4" x1="358.98" y1="771.6" x2="380.82" y2="735.39"/><line class="cls-4" x1="337.48" y1="766.54" x2="362.77" y2="730.91"/><line class="cls-4" x1="315.21" y1="760.45" x2="344.16" y2="725.54"/><line class="cls-4" x1="292.11" y1="753.17" x2="324.94" y2="719.12"/><line class="cls-4" x1="268.16" y1="744.49" x2="305.1" y2="711.5"/><line class="cls-4" x1="243.36" y1="734.18" x2="284.7" y2="702.48"/><line class="cls-4" x1="217.8" y1="721.97" x2="263.83" y2="691.86"/><line class="cls-4" x1="165.82" y1="661.08" x2="229.44" y2="637.52"/><line class="cls-4" x1="165.82" y1="633.33" x2="229.44" y2="615.05"/><line class="cls-4" x1="165.82" y1="606.76" x2="229.44" y2="593.52"/><line class="cls-4" x1="165.82" y1="580.99" x2="229.44" y2="572.66"/><line class="cls-4" x1="165.82" y1="555.73" x2="229.44" y2="552.21"/><line class="cls-4" x1="165.82" y1="530.68" x2="229.44" y2="531.92"/><line class="cls-4" x1="165.82" y1="505.55" x2="229.44" y2="511.57"/><line class="cls-4" x1="165.82" y1="480.07" x2="229.44" y2="490.94"/><line class="cls-4" x1="165.82" y1="453.92" x2="229.44" y2="469.76"/><line class="cls-4" x1="165.82" y1="426.78" x2="229.44" y2="447.79"/><line class="cls-4" x1="165.82" y1="398.27" x2="178.56" y2="403.56"/><line class="cls-4" x1="165.82" y1="367.92" x2="191.31" y2="380.82"/><line class="cls-4" x1="189.65" y1="349.57" x2="256.41" y2="389.89"/><line class="cls-4" x1="215.9" y1="334.94" x2="277.38" y2="378.66"/><line class="cls-4" x1="297.91" y1="369.12" x2="241.74" y2="322.48"/><line class="cls-4" x1="266.97" y1="311.91" x2="317.87" y2="361.05"/><line class="cls-4" x1="291.5" y1="302.98" x2="337.22" y2="354.26"/><line class="cls-4" x1="315.29" y1="295.46" x2="355.92" y2="348.55"/><line class="cls-4" x1="675.05" y1="291.87" x2="636.31" y2="346.26"/><line class="cls-5" x1="229.44" y1="447.79" x2="229.44" y2="469.76"/><path class="cls-5" d="M256.41,389.89c-8.86,5.11-15.92,9.67-21.08,13.21"/><line class="cls-5" x1="229.44" y1="424.69" x2="229.44" y2="447.79"/><line class="cls-5" x1="229.44" y1="469.76" x2="229.44" y2="490.94"/><path class="cls-5" d="M324.94,719.12q9.11,3.26,19.22,6.42"/><line class="cls-5" x1="229.44" y1="490.94" x2="229.44" y2="511.57"/><path class="cls-5" d="M448.46,746.19q7.92.74,16.11,1.27"/><line class="cls-5" x1="229.44" y1="531.92" x2="229.44" y2="511.57"/><path class="cls-5" d="M362.77,730.91q8.72,2.33,18,4.48"/><path class="cls-5" d="M380.82,735.39q8.51,1.95,17.53,3.68"/><path class="cls-5" d="M398.34,739.07q8.33,1.6,17.07,3"/><path class="cls-5" d="M235.33,403.09c-1.4,1-2.67,1.85-3.79,2.65a5,5,0,0,0-2.09,4.07v14.88"/><path class="cls-5" d="M344.16,725.54q8.92,2.77,18.62,5.37"/><path class="cls-5" d="M277.38,378.66c-7.84,3.9-14.84,7.7-21,11.23"/><path class="cls-5" d="M432.09,744.4q8,1,16.36,1.79"/><path class="cls-5" d="M415.41,742q8.16,1.29,16.68,2.35"/><path class="cls-5" d="M551.72,331.35q8.22.76,16.13,1.75"/><path class="cls-5" d="M480.51,748.23q7.81.27,15.84.31"/><path class="cls-5" d="M747.34,685.88c-6.08,3.58-13.09,7.48-21,11.51"/><path class="cls-5" d="M520.13,329.35q-7.69-.26-15.61-.31"/><path class="cls-5" d="M457.52,330.62q-8.13.62-16,1.47"/><path class="cls-5" d="M488.94,329.13q-7.93.15-15.64.51"/><path class="cls-5" d="M618.47,341.9q-8.42-1.9-17.31-3.6"/><path class="cls-5" d="M551.72,331.35q-7.81-.72-15.88-1.24"/><path class="cls-5" d="M584.31,335.4q-8.06-1.25-16.45-2.3"/><path class="cls-5" d="M504.53,329l-3.34,0h-1.74c-3.54,0-7,0-10.5.11"/><path class="cls-5" d="M464.57,747.45q7.85.5,15.94.78"/><line class="cls-5" x1="771.18" y1="626.15" x2="771.18" y2="649.21"/><line class="cls-5" x1="771.18" y1="604.19" x2="771.18" y2="626.15"/><path class="cls-5" d="M297.91,369.12c6.11-2.65,12.77-5.36,20-8.07"/><path class="cls-5" d="M425.26,334.08q-8.49,1.17-16.63,2.57"/><path class="cls-5" d="M391.58,339.86q-9,1.86-17.55,3.93"/><path class="cls-5" d="M337.22,354.26q-10.23,3.35-19.35,6.79"/><path class="cls-5" d="M337.22,354.26q8.94-2.92,18.71-5.71"/><path class="cls-5" d="M528.07,747.9q-7.82.38-15.88.54"/><path class="cls-5" d="M647.08,728.34q-8.82,2.55-18.32,4.91"/><path class="cls-5" d="M496.36,748.54l3.09,0h1.74c3.71,0,7.36,0,11-.12"/><line class="cls-5" x1="771.18" y1="583.03" x2="771.18" y2="604.19"/><path class="cls-5" d="M628.76,733.25q-8.61,2.13-17.78,4.06"/><path class="cls-5" d="M560.31,745.36q-8,.87-16.23,1.52"/><path class="cls-5" d="M593.7,740.65q-8.24,1.44-16.87,2.65"/><path class="cls-5" d="M544.09,746.88q-7.88.62-16,1"/><path class="cls-5" d="M685.53,715.47c-6.11,2.35-12.62,4.69-19.53,7"/><path class="cls-5" d="M747.34,685.88c9.23-5.44,16.28-10.16,21-13.53"/><path class="cls-5" d="M705.66,707.18l-2,.86c-5.59,2.43-11.66,4.93-18.17,7.43"/><line class="cls-5" x1="771.18" y1="542.06" x2="771.18" y2="521.77"/><line class="cls-5" x1="771.18" y1="562.4" x2="771.18" y2="542.06"/><path class="cls-5" d="M666,722.47q-9,3-18.92,5.87"/><path class="cls-5" d="M726.31,697.39c-6.31,3.21-13.2,6.5-20.65,9.79"/><path class="cls-5" d="M768.38,672.34l.71-.51a5,5,0,0,0,2.09-4.07V649.21"/><path class="cls-5" d="M611,737.32q-8.42,1.77-17.28,3.33"/><path class="cls-5" d="M636.31,346.26q9.17,2.42,17.66,5"/><path class="cls-5" d="M263.83,691.86c6.24,3.41,13.2,7,20.87,10.62"/><path class="cls-5" d="M242.72,679.39c5.71,3.66,12.77,7.92,21.11,12.48"/><path class="cls-5" d="M284.7,702.48q5.84,2.77,12.22,5.56,3.93,1.71,8.18,3.46"/><line class="cls-5" x1="229.44" y1="615.05" x2="229.44" y2="637.52"/><line class="cls-5" x1="229.44" y1="637.52" x2="229.44" y2="661.27"/><path class="cls-5" d="M618.47,341.9q9.21,2.08,17.84,4.37"/><path class="cls-5" d="M305.1,711.5c6.13,2.52,12.76,5.08,19.84,7.62"/><path class="cls-5" d="M229.44,661.27v6.5a5,5,0,0,0,2.09,4.07c2.84,2,6.58,4.6,11.19,7.55"/><path class="cls-5" d="M391.58,339.86q8.31-1.71,17.05-3.21"/><path class="cls-5" d="M584.31,335.4q8.62,1.34,16.85,2.9"/><path class="cls-5" d="M355.92,348.55q8.73-2.47,18.1-4.76"/><path class="cls-5" d="M425.26,334.08q8-1.1,16.27-2"/><path class="cls-5" d="M576.83,743.3q-8.09,1.14-16.51,2.06"/><path class="cls-5" d="M520.13,329.35q8,.27,15.71.76"/><path class="cls-5" d="M457.52,330.62q7.76-.6,15.78-1"/><path class="cls-5" d="M297.91,369.12l-1,.42c-7,3.05-13.52,6.12-19.55,9.11"/><line class="cls-5" x1="771.18" y1="436.4" x2="771.18" y2="458.9"/><line class="cls-5" x1="229.44" y1="593.52" x2="229.44" y2="615.05"/><path class="cls-5" d="M754.78,396.22c6.07,3.79,10.86,7.06,14.31,9.53a5,5,0,0,1,2.09,4.07v2.8"/><line class="cls-5" x1="771.18" y1="458.9" x2="771.18" y2="480.44"/><line class="cls-5" x1="771.18" y1="501.31" x2="771.18" y2="521.77"/><line class="cls-5" x1="771.18" y1="562.4" x2="771.18" y2="583.03"/><line class="cls-5" x1="771.18" y1="480.44" x2="771.18" y2="501.31"/><line class="cls-5" x1="229.44" y1="531.92" x2="229.44" y2="552.21"/><line class="cls-5" x1="771.18" y1="412.62" x2="771.18" y2="436.4"/><path class="cls-5" d="M673,357.51c7,2.46,13.55,4.94,19.66,7.41"/><path class="cls-5" d="M654,351.28q10,3,19,6.23"/><line class="cls-5" x1="229.44" y1="572.66" x2="229.44" y2="593.52"/><path class="cls-5" d="M712.92,373.69c7.58,3.52,14.52,7,20.77,10.35"/><line class="cls-5" x1="229.44" y1="552.21" x2="229.44" y2="572.66"/><path class="cls-5" d="M733.69,384c8.2,4.38,15.24,8.52,21.09,12.18"/><path class="cls-5" d="M692.66,364.92c3.86,1.56,7.55,3.1,11,4.62q4.76,2.08,9.22,4.15"/></g><g id="Frame"><path class="cls-6" d="M793.14,680a14.55,14.55,0,0,0,1.86,1.39,11.41,11.41,0,0,0,3.48,1.43Z"/><path class="cls-6" d="M666.92,360.69l-1-.35-.1.1Z"/><path class="cls-6" d="M766.06,387.35c1.21.76,2.36,1.5,3.47,2.22l5.89-3.12A24.68,24.68,0,0,1,766.06,387.35Z"/><path class="cls-6" d="M355.24,336l.22.29,1-.28C356.06,336,355.65,336,355.24,336Z"/><path class="cls-6" d="M190.7,418.14a18.25,18.25,0,0,0,8.29,2.69l-8.92-3.1Z"/><path class="cls-6" d="M208,681.38c.4-.25.78-.52,1.15-.8l-3.72,2A11.43,11.43,0,0,0,208,681.38Z"/><path class="cls-3" d="M340.11,359.8c-15.11,3.37-30,19.37-24.17,45.57a42.37,42.37,0,0,1-32.15,50.57,33.9,33.9,0,0,1-40.46-25.72c-3.26-14.62,5.84-29.61,20.46-32.87,11.7-2.6,23.4,5.27,26,17A17.36,17.36,0,0,1,276.64,435l-7.56,1.68A17.36,17.36,0,0,0,282.25,416c-2.6-11.7-14.31-19.57-26-17-14.62,3.26-23.72,18.25-20.46,32.87a33.9,33.9,0,0,0,40.46,25.72,42.37,42.37,0,0,0,32.15-50.57c-5.83-26.2,9.06-42.2,24.17-45.57Z"/><path class="cls-3" d="M255.68,373.24c-5.4,8.68-18.62,14.46-33.66,5.1a28,28,0,0,0-38.51,9,22.37,22.37,0,0,0,7.18,30.81,18.19,18.19,0,0,0,24.94-5.57,14.61,14.61,0,0,0-4.89-19.9A11.45,11.45,0,0,0,195,396.35l-2.7,4.34A11.45,11.45,0,0,1,208,397a14.61,14.61,0,0,1,4.89,19.9A18.19,18.19,0,0,1,188,422.48a22.37,22.37,0,0,1-7.18-30.81,28,28,0,0,1,38.51-9c15,9.35,28.26,3.57,33.66-5.1Z"/><path class="cls-3" d="M237,470.45c-2,8.58,2.54,20.17,17.41,23.64a24.12,24.12,0,0,1,18,29,19.29,19.29,0,0,1-23.17,14.41,15.69,15.69,0,0,1-11.81-18.6,12.6,12.6,0,0,1,15.12-9.15,9.88,9.88,0,0,1,7.38,11.86l-1,4.29A9.88,9.88,0,0,0,251.57,514a12.6,12.6,0,0,0-15.12,9.15,15.69,15.69,0,0,0,11.81,18.6,19.29,19.29,0,0,0,23.17-14.41,24.12,24.12,0,0,0-18-29C238.55,494.91,234,483.32,236,474.74Z"/><path class="cls-3" d="M662.94,359.8c15.11,3.37,30,19.37,24.17,45.57a42.37,42.37,0,0,0,32.15,50.57,33.9,33.9,0,0,0,40.46-25.72c3.26-14.62-5.84-29.61-20.46-32.87-11.7-2.6-23.4,5.27-26,17A17.36,17.36,0,0,0,726.41,435l7.56,1.68A17.36,17.36,0,0,1,720.8,416c2.6-11.7,14.31-19.57,26-17,14.62,3.26,23.72,18.25,20.46,32.87a33.9,33.9,0,0,1-40.46,25.72,42.37,42.37,0,0,1-32.15-50.57c5.83-26.2-9.06-42.2-24.17-45.57Z"/><path class="cls-3" d="M747.36,373.24c5.4,8.68,18.62,14.46,33.66,5.1a28,28,0,0,1,38.51,9,22.37,22.37,0,0,1-7.18,30.81,18.19,18.19,0,0,1-24.94-5.57,14.61,14.61,0,0,1,4.89-19.9,11.45,11.45,0,0,1,15.78,3.68l2.7,4.34A11.45,11.45,0,0,0,795,397a14.61,14.61,0,0,0-4.89,19.9A18.19,18.19,0,0,0,815,422.48a22.37,22.37,0,0,0,7.18-30.81,28,28,0,0,0-38.51-9c-15,9.35-28.26,3.57-33.66-5.1Z"/><path class="cls-3" d="M766,470.45c2,8.58-2.54,20.17-17.41,23.64a24.12,24.12,0,0,0-18,29,19.29,19.29,0,0,0,23.17,14.41,15.69,15.69,0,0,0,11.81-18.6,12.6,12.6,0,0,0-15.12-9.15,9.88,9.88,0,0,0-7.38,11.86l1,4.29A9.88,9.88,0,0,1,751.48,514a12.6,12.6,0,0,1,15.12,9.15,15.69,15.69,0,0,1-11.81,18.6,19.29,19.29,0,0,1-23.17-14.41,24.12,24.12,0,0,1,18-29C764.5,494.91,769,483.32,767,474.74Z"/><path class="cls-3" d="M340.11,719.59c-15.11-3.37-30-19.37-24.17-45.57a42.37,42.37,0,0,0-32.15-50.57,33.9,33.9,0,0,0-40.46,25.72c-3.26,14.62,5.84,29.61,20.46,32.87,11.7,2.6,23.4-5.27,26-17a17.36,17.36,0,0,0-13.17-20.71l-7.56-1.68a17.36,17.36,0,0,1,13.17,20.71c-2.6,11.7-14.31,19.57-26,17-14.62-3.26-23.72-18.25-20.46-32.87a33.9,33.9,0,0,1,40.46-25.72,42.37,42.37,0,0,1,32.15,50.57c-5.83,26.2,9.06,42.2,24.17,45.57Z"/><path class="cls-3" d="M255.68,705.15c-5.4-8.68-18.62-14.46-33.66-5.1a28,28,0,0,1-38.51-9,22.37,22.37,0,0,1,7.18-30.81,18.19,18.19,0,0,1,24.94,5.57,14.61,14.61,0,0,1-4.89,19.9A11.45,11.45,0,0,1,195,682l-2.7-4.34A11.45,11.45,0,0,0,208,681.38a14.61,14.61,0,0,0,4.89-19.9A18.19,18.19,0,0,0,188,655.91a22.37,22.37,0,0,0-7.18,30.81,28,28,0,0,0,38.51,9c15-9.35,28.26-3.57,33.66,5.1Z"/><path class="cls-3" d="M237,607.94c-2-8.58,2.54-20.17,17.41-23.64a24.12,24.12,0,0,0,18-29,19.29,19.29,0,0,0-23.17-14.41,15.69,15.69,0,0,0-11.81,18.6,12.6,12.6,0,0,0,15.12,9.15,9.88,9.88,0,0,0,7.38-11.86l-1-4.29a9.88,9.88,0,0,1-7.38,11.86,12.6,12.6,0,0,1-15.12-9.15,15.69,15.69,0,0,1,11.81-18.6A19.29,19.29,0,0,1,271.44,551a24.12,24.12,0,0,1-18,29C238.55,583.48,234,595.06,236,603.65Z"/><path class="cls-3" d="M662.94,719.59c15.11-3.37,30-19.37,24.17-45.57a42.37,42.37,0,0,1,32.15-50.57,33.9,33.9,0,0,1,40.46,25.72c3.26,14.62-5.84,29.61-20.46,32.87-11.7,2.6-23.4-5.27-26-17a17.36,17.36,0,0,1,13.17-20.71l7.56-1.68a17.36,17.36,0,0,0-13.17,20.71c2.6,11.7,14.31,19.57,26,17,14.62-3.26,23.72-18.25,20.46-32.87a33.9,33.9,0,0,0-40.46-25.72,42.37,42.37,0,0,0-32.15,50.57c5.83,26.2-9.06,42.2-24.17,45.57Z"/><path class="cls-3" d="M747.36,705.15c5.4-8.68,18.62-14.46,33.66-5.1a28,28,0,0,0,38.51-9,22.37,22.37,0,0,0-7.18-30.81,18.19,18.19,0,0,0-24.94,5.57,14.61,14.61,0,0,0,4.89,19.9A11.45,11.45,0,0,0,808.07,682l2.7-4.34A11.45,11.45,0,0,1,795,681.38a14.61,14.61,0,0,1-4.89-19.9A18.19,18.19,0,0,1,815,655.91a22.37,22.37,0,0,1,7.18,30.81,28,28,0,0,1-38.51,9c-15-9.35-28.26-3.57-33.66,5.1Z"/><path class="cls-3" d="M766,607.94c2-8.58-2.54-20.17-17.41-23.64a24.12,24.12,0,0,1-18-29,19.29,19.29,0,0,1,23.17-14.41,15.69,15.69,0,0,1,11.81,18.6,12.6,12.6,0,0,1-15.12,9.15,9.88,9.88,0,0,1-7.38-11.86l1-4.29a9.88,9.88,0,0,0,7.38,11.86,12.6,12.6,0,0,0,15.12-9.15,15.69,15.69,0,0,0-11.81-18.6A19.29,19.29,0,0,0,731.61,551a24.12,24.12,0,0,0,18,29C764.5,583.48,769,595.06,767,603.65Z"/><path class="cls-3" d="M572.37,320c8,3.75,20.26,1.73,26.75-12.1a24.12,24.12,0,0,1,32.08-11.58A19.29,19.29,0,0,1,640.47,322a15.69,15.69,0,0,1-20.66,7.67A12.6,12.6,0,0,1,614,313a9.88,9.88,0,0,1,13.14-4.74l4,1.87A9.88,9.88,0,0,0,618,314.88a12.6,12.6,0,0,0,5.8,16.69,15.69,15.69,0,0,0,20.66-7.67,19.29,19.29,0,0,0-9.26-25.67,24.12,24.12,0,0,0-32.08,11.58c-6.5,13.83-18.77,15.85-26.75,12.1Z"/><path class="cls-3" d="M430.68,320c-8,3.75-20.26,1.73-26.75-12.1a24.12,24.12,0,0,0-32.08-11.58A19.29,19.29,0,0,0,362.59,322a15.69,15.69,0,0,0,20.66,7.67A12.6,12.6,0,0,0,389,313a9.88,9.88,0,0,0-13.14-4.74l-4,1.87a9.88,9.88,0,0,1,13.14,4.74,12.6,12.6,0,0,1-5.8,16.69,15.69,15.69,0,0,1-20.66-7.67,19.29,19.29,0,0,1,9.26-25.67,24.12,24.12,0,0,1,32.08,11.58c6.5,13.83,18.77,15.85,26.75,12.1Z"/><polygon class="cls-7" points="777.51 467.58 775.74 517.95 779.29 517.95 777.51 467.58"/><rect class="cls-7" x="775.1" y="515.53" width="4.83" height="4.83" transform="translate(593.97 -398.08) rotate(45)"/><circle class="cls-7" cx="777.52" cy="529.2" r="2.15"/><path class="cls-7" d="M775.36,539.19a2.15,2.15,0,1,1,4.31,0"/><rect class="cls-7" x="773.83" y="539.07" width="7.37" height="0.25"/><polygon class="cls-7" points="777.51 610.81 779.29 560.44 775.74 560.44 777.51 610.81"/><rect class="cls-7" x="775.1" y="558.03" width="4.83" height="4.83" transform="translate(931.01 1506.52) rotate(-135)"/><circle class="cls-7" cx="777.52" cy="549.19" r="2.15"/><path class="cls-7" d="M779.67,539.19a2.15,2.15,0,0,1-4.31,0"/><polygon class="cls-7" points="226.1 467.7 224.32 518.07 227.88 518.07 226.1 467.7"/><rect class="cls-7" x="223.69" y="515.66" width="4.83" height="4.83" transform="translate(432.55 -8.14) rotate(45)"/><circle class="cls-7" cx="226.1" cy="529.32" r="2.15"/><path class="cls-7" d="M223.95,539.32a2.15,2.15,0,1,1,4.31,0"/><rect class="cls-7" x="222.41" y="539.19" width="7.37" height="0.25"/><polygon class="cls-7" points="226.1 610.93 227.88 560.57 224.32 560.57 226.1 610.93"/><rect class="cls-7" x="223.69" y="558.16" width="4.83" height="4.83" transform="translate(-10.41 1116.83) rotate(-135)"/><circle class="cls-7" cx="226.1" cy="549.31" r="2.15"/><path class="cls-7" d="M228.25,539.32a2.15,2.15,0,1,1-4.31,0"/></g><g id="Mid_LEtters" data-name="Mid LEtters"><path class="cls-1" d="M403.74,369.37c3.25,7.66,3.17,9.83,3.06,10.33a10.48,10.48,0,0,1-1.38.72,4,4,0,0,0,1.68,7.63,13,13,0,0,0,10.26-4.67,11.77,11.77,0,0,0,2.37-4.46,13.34,13.34,0,0,0,.76-4.8h7.06a4.75,4.75,0,0,1,.34,1.79v22.6h-.15a7.2,7.2,0,0,0-5.58,3.27,9.85,9.85,0,0,0-1.57,8.82,4,4,0,0,0,.25.62l0,.05a4,4,0,0,0,.32.79,10.07,10.07,0,0,0,6.7,5.29v35.12a5.2,5.2,0,0,1-.33,1.84,4,4,0,0,0-3,2.32L424,458a4,4,0,0,0,3.66,5.63h14.52a4,4,0,0,0,3.5-5.94l-.73-1.32a4,4,0,0,0-2.82-2,4.72,4.72,0,0,1-.34-2.07v-76a5.36,5.36,0,0,1,.33-2.16h7.16a17.84,17.84,0,0,0,.64,4.68c0,.12.07.24.11.35a14.63,14.63,0,0,0,2.45,4.26,13,13,0,0,0,10.09,4.64,4,4,0,0,0,1.73-7.61,9.85,9.85,0,0,1-1.32-.71c-.12-.47-.24-2.59,2.91-10.25a4,4,0,0,0,1.5-1.54l.34.61a4,4,0,0,0,2.78,2,5.48,5.48,0,0,1,.38,2.37v25.6h-.15a7.46,7.46,0,0,0-5.78,3.46,9.57,9.57,0,0,0-1.48,8.31,4.93,4.93,0,0,0,.64,1.66l.06.12a10.07,10.07,0,0,0,6.7,5.29V452.1a5.1,5.1,0,0,1-.36,2.22,4,4,0,0,0-2.8,2l-.73,1.32a4,4,0,0,0,3.5,5.94h14.66a4,4,0,0,0,3.5-5.94l-.73-1.32a4,4,0,0,0-2.85-2,4.61,4.61,0,0,1-.31-1.69v-47a9.79,9.79,0,0,1,1.46-2.47,4,4,0,0,0,.62-.47,5.87,5.87,0,0,1,4-1.45h.32a2.72,2.72,0,0,1,1.82.63,4,4,0,0,0-3.48.78,5.21,5.21,0,0,0-2.3,4.24,5.44,5.44,0,0,0,2.37,4.39,7,7,0,0,0,4.35,1.35,14.6,14.6,0,0,0,11.83-7.25V452.1a5.08,5.08,0,0,1-.36,2.22,4,4,0,0,0-2.8,2l-.73,1.32a4,4,0,0,0,3.5,5.94H520a4,4,0,0,0,3.5-5.94l-.73-1.32a4,4,0,0,0-2.8-2,5.09,5.09,0,0,1-.36-2.22V372.91a5.48,5.48,0,0,1,.38-2.37,4,4,0,0,0,2.78-2l.73-1.32a4,4,0,0,0-3.5-5.94H505.34a4,4,0,0,0-3.5,5.94l.73,1.32a4,4,0,0,0,2.78,2,5.47,5.47,0,0,1,.38,2.37v15.94h-.81a15.44,15.44,0,0,0-12.55-6,14.9,14.9,0,0,0-3.62.43q-.54.11-1.08.27c-.15-.18-.31-.35-.48-.52l-.44-.43a4,4,0,0,0-.61-.5,6.84,6.84,0,0,0-1.44-.73v-9.06a4.61,4.61,0,0,1,.31-1.69,4,4,0,0,0,2.85-2l.73-1.32a4,4,0,0,0-3.5-5.94H470.44a4,4,0,0,0-3.3,1.75,4,4,0,0,0-3.3-1.75H405.92a4,4,0,0,0-4,4V366A4,4,0,0,0,403.74,369.37Z"/><path class="cls-1" d="M526,412l.06.11a9.9,9.9,0,0,0,6.7,5.3V452.1a5.09,5.09,0,0,1-.36,2.22,4,4,0,0,0-2.8,2l-.73,1.32a4,4,0,0,0,3.5,5.94h30.06a28.3,28.3,0,0,0,28.34-28.2A24.74,24.74,0,0,0,586,420.21,20,20,0,0,0,572,412.07a20.91,20.91,0,0,0-2.95-.21,21.47,21.47,0,0,0-8.26,1.65A21.92,21.92,0,0,0,548,429.35l-.41,0a4,4,0,0,0-1,.12V409.63a5.63,5.63,0,0,0,1.68,3.06l.12.12a6.81,6.81,0,0,0,4.71,1.63,13.05,13.05,0,0,0,12.31-10.15,4,4,0,0,0,.09-.58v0a6.72,6.72,0,0,0,.15-1.12,13.32,13.32,0,0,0-3.38-10.3A14.07,14.07,0,0,0,552.11,388a12,12,0,0,0-2.17.19,18.72,18.72,0,0,0-3.35.93v-15h9.63a20,20,0,0,0,1.14,11.43c1.88,4.8,7.25,9.64,13.89,9.64a15.88,15.88,0,0,0,9.49-3.37,3.9,3.9,0,0,0,.46-.39l.88-.88a14.79,14.79,0,0,0,3.65-14.66c-1-3.42-3.12-5.81-5.65-6.42a6.69,6.69,0,0,0-1.73-.24,5,5,0,0,0-4.69,3,5.26,5.26,0,0,0-.19,3.5,8.25,8.25,0,0,1-.75-2c0-.08,0-.17-.07-.25a7,7,0,0,1-.19-3.14,4.12,4.12,0,0,0,.32-1.1,2.63,2.63,0,0,1,.7-.94,4,4,0,0,0-2.6-7H532.32a4,4,0,0,0-3.5,5.94l.73,1.32a4,4,0,0,0,2.78,2,5.48,5.48,0,0,1,.38,2.37v25.6h-.15A7.46,7.46,0,0,0,526.8,402a9.57,9.57,0,0,0-1.48,8.31A5,5,0,0,0,526,412Zm20.62-5.19a2.75,2.75,0,0,1,.71-.58,4.66,4.66,0,0,0-.43.8,4.75,4.75,0,0,0-.28,1Zm14.63,24.13c0-.07,0-.15,0-.22a7.87,7.87,0,0,1,3.86-4.93l.16-.06.67-.28a8.6,8.6,0,0,1,3.29-.64,9,9,0,0,1,1.21.08c5.5.63,7.46,6.08,7.46,10.54a15.27,15.27,0,0,1-.28,2.91,5.65,5.65,0,0,0-1.68-.26,5.12,5.12,0,0,0-4.83,3.58,5.75,5.75,0,0,1-.65,0h-.57a8,8,0,0,1-4.35-1.46,10.31,10.31,0,0,1-3.83-4.4A11.55,11.55,0,0,1,561.22,430.89Zm-14.63,8.34a7.12,7.12,0,0,0,3.07,1.16,16,16,0,0,0,2.48,3.73,19.13,19.13,0,0,0,10.46,6.62H546.92a5.36,5.36,0,0,1-.33-2.16Z"/><path class="cls-1" d="M363.69,523a10.06,10.06,0,0,0,1.94-6.4,8.49,8.49,0,0,0-3.42-6.12,4,4,0,0,0-3.3-.78,9.64,9.64,0,0,0,2.47-2.24,4,4,0,0,0-2.58-6.46,21,21,0,0,0,1.22-5.58,12.8,12.8,0,0,0,.18-2.49,22.87,22.87,0,0,0-2.24-9.9,10.67,10.67,0,0,0,2.8-8.31,4,4,0,0,0-3.28-3.47,4,4,0,0,0-.69-.06,4,4,0,0,0-3.28,1.71,4.49,4.49,0,0,1-1.82.31,11.91,11.91,0,0,1-4-.82,24.15,24.15,0,0,0-10.54-2.52,25.29,25.29,0,0,0-25.26,25.26,18.74,18.74,0,0,0,1.69,7.83,4,4,0,0,0,.26.82,24.61,24.61,0,0,0,4.86,7,6.67,6.67,0,0,0-1.94,4.65l-1.72-1a4,4,0,0,0-5.94,3.5v1.61a4,4,0,0,0,1.28,2.93,5.51,5.51,0,0,1-.45,1.35,11.09,11.09,0,0,0-.53,1.2,29.74,29.74,0,0,0-2.95,13A31.47,31.47,0,0,0,311,554.3c-.17.4-.29.75-.38,1a4,4,0,0,0-.21,1.27,6.35,6.35,0,0,0,1.24,4,4,4,0,0,0,5.06,1.14,4,4,0,0,0,.51-.32l.35.29a30.61,30.61,0,0,0,18.84,7.08h.73a31.45,31.45,0,0,0,21.66-8.57l.08-.08a30.17,30.17,0,0,0,8.94-21.45,25.66,25.66,0,0,0-4.41-14.87A6.33,6.33,0,0,0,363.69,523Zm-26.55-40.28A10.24,10.24,0,0,1,347.37,493c0,.08,0,.17,0,.25a4,4,0,0,0-.13.74,9.76,9.76,0,0,1-.84,3.25,6.39,6.39,0,0,1-1.37,1.88,4.09,4.09,0,0,1-.87.72,4,4,0,0,0-.42.25,8.19,8.19,0,0,1-1.16.58l-.69.31a12.36,12.36,0,0,1-3.19.41,12.2,12.2,0,0,1-3.43-.48,8.45,8.45,0,0,1-4.08-2.79,5.74,5.74,0,0,1-.44-.64,5.05,5.05,0,0,0,.88-2.88,5.23,5.23,0,0,0-2.8-4.61,4,4,0,0,0-1.79-.42h-.84A12.28,12.28,0,0,1,337.14,482.74Zm0,73.24h-.41a4,4,0,0,0-1.06-.14,5.08,5.08,0,0,1-2.1-.42,6.27,6.27,0,0,1-3.73-6.06,4,4,0,0,0,.14-.71,1.74,1.74,0,0,1,1.72-1.37h.13a4,4,0,0,0,.46,4.39,4.93,4.93,0,0,0,6.08,1.74c1.49-.58,3.26-2,3.75-5.48,0-.07,0-.14,0-.21a11.68,11.68,0,0,0-3.31-8.88A15,15,0,0,0,328,533.91a12.78,12.78,0,0,0-1.62.1l-.11,0a13.7,13.7,0,0,0-6.95,3.21,19.18,19.18,0,0,1,1.58-6.63,4.85,4.85,0,0,1,1.29-1.47,4,4,0,0,0,3.54-.45l1.32-.88a4,4,0,0,0,1.65-2.31,9.35,9.35,0,0,0,5.63-3.6,98.27,98.27,0,0,1,11.74,5.2c5.18,3,7.87,5.88,8.71,9.27l0,.14a14.31,14.31,0,0,1,.21,2.2C355,548.39,347.15,556,337.14,556Zm18.58-42.22c-.93,0-3-.25-6.66-1.81a18.72,18.72,0,0,0,3-1.82,7.21,7.21,0,0,0,3.06.69,7.1,7.1,0,0,0,2.18-.34A4,4,0,0,0,355.73,513.76Z"/><path class="cls-1" d="M375,495.12a7.08,7.08,0,0,0-3.63,13.15l0,.08a4,4,0,0,0,5.32,1.85,9,9,0,0,0,5.5-8.09A7.16,7.16,0,0,0,375,495.12Z"/><path class="cls-1" d="M423.07,572.33h14.66a4,4,0,0,0,3.58-5.79l-.73-1.47a4,4,0,0,0-2.94-2.16,5.26,5.26,0,0,1-.31-2.06V493.11a18.17,18.17,0,0,0-.23-2.61,10.29,10.29,0,0,1,9.86-7.61,6.79,6.79,0,0,1,.72.06c.28,0,.58.06.9.08,3.62.75,7.73,4,7.73,10.82v37.59a5.09,5.09,0,0,0-.84.52,4.59,4.59,0,0,0-.65.46,10.9,10.9,0,0,0-2.52-.29c-5.22,0-10.92,3.5-11.1,11.28v.73a4,4,0,0,0,0,.6,10.85,10.85,0,0,0,10.17,9.18,5.94,5.94,0,0,0,3.76-1.23l.11-.09a5.77,5.77,0,0,0,1-1.13v18.91c0,5.91,0,15.78,9.61,23a23,23,0,0,0,14.48,5.1,18.27,18.27,0,0,0,8.12-1.83,21.55,21.55,0,0,0,12.76-15.79l.38,0a4,4,0,0,0,4-4,6.89,6.89,0,0,0-6-6.92c-.1-.19-.2-.39-.31-.59a28,28,0,0,0,12.61,3,28.43,28.43,0,0,0,28.19-27.76V515.69a4,4,0,0,0-.15-1.08v-17.2A28.2,28.2,0,0,0,514,470.08a9.68,9.68,0,0,0-2.1-.18h-.34a28.33,28.33,0,0,0-28,27.47s0,9.89,0,9.89h-.24a7.35,7.35,0,0,0-5.71,3.39,9.5,9.5,0,0,0-1.45,8.25,5,5,0,0,0,.64,1.66l.06.12a9.9,9.9,0,0,0,6.7,5.3v18.69a28,28,0,0,0,5.07,15.43,19.52,19.52,0,0,0-6.34-1.05,19.12,19.12,0,0,0-12,4.21l-.17.13V493.11a23.12,23.12,0,0,0-39.59-16.17A23.12,23.12,0,0,0,414.13,470a22.75,22.75,0,0,0-9.6,2.1,4,4,0,0,0-3.6-2.25H390.67a4,4,0,0,0-3.5,5.94l.73,1.32a4,4,0,0,0,2.78,2,5.47,5.47,0,0,1,.38,2.37v25.73h-.24a7.35,7.35,0,0,0-5.71,3.39,9.5,9.5,0,0,0-1.45,8.25,4.94,4.94,0,0,0,.64,1.66l.06.12a10.07,10.07,0,0,0,6.7,5.29v34.75a5.78,5.78,0,0,1-.35,2.22,4,4,0,0,0-2.9,2.15l-.73,1.47a4,4,0,0,0,3.58,5.79h14.66a4,4,0,0,0,3.58-5.79l-.73-1.47a4,4,0,0,0-2.88-2.15,5.08,5.08,0,0,1-.36-2.22v-71.8a10.06,10.06,0,0,1,9.2-6,6.79,6.79,0,0,1,.72.06c.28,0,.58.06.9.08,3.62.75,7.73,4,7.73,10.82v66.87a5.08,5.08,0,0,1-.36,2.22,4,4,0,0,0-2.88,2.15l-.73,1.47a4,4,0,0,0,3.58,5.79Zm81.06-81,.06-.19a7.8,7.8,0,0,1,2.65-4.07c.24-.16.47-.3.7-.43a4.85,4.85,0,0,0,2.78.92,5.07,5.07,0,0,0,4.82-3.47,4,4,0,0,0,.17-.7,10.25,10.25,0,0,1-3.13,19.92l-.11,0a9.62,9.62,0,0,0-1.22-.12,11,11,0,0,1-2.91-.73,12.29,12.29,0,0,1-2-1.48l-.14-.14a10.22,10.22,0,0,1-.85-1,10.93,10.93,0,0,1-.77-1.83l-.07-.22A9.79,9.79,0,0,1,504.13,491.35Zm-6.67,26a4,4,0,0,0,6.43-2.76,28.55,28.55,0,0,0,5.72,1.36,4,4,0,0,0,.56,0c.13,0,.26,0,.39,0a10.55,10.55,0,0,0,1.38.1,23.06,23.06,0,0,0,10-2.26,9.49,9.49,0,0,0,4.33,2.4v28.26c0,.27,0,.78,0,.94s-.06.25-.07.37c-.31,2.06-1.76,8.9-7.4,11.92a4.07,4.07,0,0,0-.52.21,4,4,0,0,0-.84.33l-.42.18a16,16,0,0,1-5.2.82,16.47,16.47,0,0,1-3.48-.33,15.82,15.82,0,0,1-5.41-2.54,15.15,15.15,0,0,1-5.44-11.9Zm-27.28,53.67a4.58,4.58,0,0,0,.85.54,4.73,4.73,0,0,0,2.43.66,5.15,5.15,0,0,0,2.86-.89,4,4,0,0,0,.62-.5,5.21,5.21,0,0,0,1.32-2.23q.4-.07.85-.12a8.13,8.13,0,0,1,4.55,1.45l.21.14a9.19,9.19,0,0,1,4.33,9.1,9.07,9.07,0,0,1-3.85,5.3l-.3.12-.37.14-.21.08a8.94,8.94,0,0,1-3.13.74,10.34,10.34,0,0,1-10.15-10.23Z"/><path class="cls-1" d="M681.42,528.82a20,20,0,0,0-13.92-8.15,20.87,20.87,0,0,0-2.94-.21,21.48,21.48,0,0,0-8.27,1.65A21.93,21.93,0,0,0,643.44,538l-.41,0a4,4,0,0,0-1,.12V518.24a5.63,5.63,0,0,0,1.68,3.06l.13.12a6.81,6.81,0,0,0,4.71,1.63,13.05,13.05,0,0,0,12.31-10.15,3.91,3.91,0,0,0,.09-.58v0a6.69,6.69,0,0,0,.15-1.11,13.32,13.32,0,0,0-3.38-10.3,14.07,14.07,0,0,0-10.15-4.27,12,12,0,0,0-2.17.19,18.73,18.73,0,0,0-3.35.93v-15h9.63a20,20,0,0,0,1.14,11.43c1.88,4.8,7.25,9.64,13.89,9.64a15.88,15.88,0,0,0,9.49-3.37,3.9,3.9,0,0,0,.46-.39l.88-.88a14.79,14.79,0,0,0,3.65-14.66c-1-3.42-3.12-5.8-5.65-6.41a6.71,6.71,0,0,0-1.73-.24,5,5,0,0,0-4.69,3.06,5.25,5.25,0,0,0-.18,3.48,8.21,8.21,0,0,1-.75-2c0-.08,0-.17-.07-.25a7,7,0,0,1-.19-3.14,4.13,4.13,0,0,0,.32-1.1,2.62,2.62,0,0,1,.7-.94,4,4,0,0,0-2.6-7H627.79a4,4,0,0,0-3.5,5.94l.73,1.32a4,4,0,0,0,2.78,2,5.47,5.47,0,0,1,.38,2.37v25.61H628a7.46,7.46,0,0,0-5.78,3.46,9.57,9.57,0,0,0-1.48,8.31,5,5,0,0,0,.64,1.67l.06.11a9.9,9.9,0,0,0,6.7,5.3v34.73a5.08,5.08,0,0,1-.36,2.22,4,4,0,0,0-2.8,2l-.7,1.26a15.49,15.49,0,0,0-2.61,2.26,11.71,11.71,0,0,0-3.34,8.89c0,.1,0,.2,0,.3a6.59,6.59,0,0,0,3.69,5.22,5.51,5.51,0,0,0,2.18.46,4.79,4.79,0,0,0,4.86-4.58,4,4,0,0,0-.47-1.87l.24,0a1.83,1.83,0,0,1,1.75,1.22v.38c0,.11,0,.22,0,.33.06.76.19,4.61-3.49,6.06l-.11,0a8.93,8.93,0,0,1-2.5.56,8.25,8.25,0,0,0-1.06.12l-.11,0a7.14,7.14,0,0,1-1.87-.29l-.22-.06c-3.88-.87-8-4.51-8-12.08V547.81a19.22,19.22,0,0,0-5-13,4,4,0,0,0-1.3-1.34,19.55,19.55,0,0,0-3.12-2.48c.78-.84,1.48-1.65,2.12-2.41l.15-.18c.68-.9,1.31-1.9,1.93-2.86.28-.43.56-.87.84-1.29a4,4,0,0,0,.24-.42l.45-.89a4,4,0,0,0,.22-.54v0a5.24,5.24,0,0,0,.57-1.23,36.29,36.29,0,0,0,3.14-15.74v-1.26a6.33,6.33,0,0,0-.16-1.54,17.73,17.73,0,0,0-.28-2.32l0-.13a5.54,5.54,0,0,0-.15-.83,4.86,4.86,0,0,0-.16-.82,4,4,0,0,0-.25-1l0-.06a4,4,0,0,0-.41-1.56,36.76,36.76,0,0,0-6-11.8,4,4,0,0,0-.34-.38l-.48-.51a5.63,5.63,0,0,0,.2-.9,10.23,10.23,0,0,0,1.45-6.37,8.67,8.67,0,0,0-3.69-6,4,4,0,0,0-6.35,3.6h-.43A21.61,21.61,0,0,1,589.6,472a40.14,40.14,0,0,0-7.69-1.79,39.12,39.12,0,0,0-4.6-.27,35.68,35.68,0,0,0-22.21,7.52,36.36,36.36,0,0,0-13.85,24.24,26.38,26.38,0,0,0,5.17,19.17l.09.11a26.37,26.37,0,0,0,17.21,9.81l.38,0v27.66a4.72,4.72,0,0,1-.34,2.07,4,4,0,0,0-3,2.32l-.59,1.32a4,4,0,0,0,3.65,5.63h14.52a4,4,0,0,0,3.5-5.94l-.73-1.32a4,4,0,0,0-2.78-2,5.47,5.47,0,0,1-.38-2.37V542.57a21.89,21.89,0,0,0,4.13-.34,40.28,40.28,0,0,0,6.58-1.42h4.65c5.55,0,6.07,6.37,6.12,7.79v24.65c.06,3.41.74,10,4.55,15.65,2.85,4.25,8.44,9.35,19,9.54h1.61a4,4,0,0,0,.57,0,30.63,30.63,0,0,0,6.73-1.84,4,4,0,0,0,.78-.41,1.11,1.11,0,0,1,.23-.13,4.05,4.05,0,0,0,.59-.25,54.85,54.85,0,0,0,6.67-4.32l.3-.23a5.36,5.36,0,0,1,2.17-1,4,4,0,0,0,6.93-.89,6.66,6.66,0,0,0,.56-3.75,5.65,5.65,0,0,0-1.42-3.33,5.23,5.23,0,0,0-1.4-1.29,8.61,8.61,0,0,0-1.36-.77,15.12,15.12,0,0,0-.83-8h12.77A28.3,28.3,0,0,0,686.19,544,24.74,24.74,0,0,0,681.42,528.82Zm-39.37-13.45a2.73,2.73,0,0,1,.71-.58,4.63,4.63,0,0,0-.43.8,4.69,4.69,0,0,0-.29,1ZM560.81,498a4,4,0,0,0,.49.6l.31.31a4,4,0,0,0,1,.74,4.85,4.85,0,0,0,.89.34,7.39,7.39,0,0,0-5.16,3.2,9.92,9.92,0,0,0-1.59,8.83,4,4,0,0,0,.42.94,4.07,4.07,0,0,0,.19.41,12.33,12.33,0,0,0,.7,1.14,14.43,14.43,0,0,1-1.37-1.57A12.92,12.92,0,0,1,554,503.3v0a22.87,22.87,0,0,1,8.84-15.45,4,4,0,0,0,.25.77l.57,1.29a21.27,21.27,0,0,0-1.81,1.22,3.89,3.89,0,0,0-.43.37A5.11,5.11,0,0,0,560.81,498Zm39.95,8a24,24,0,0,1-3.06,11.92,4.16,4.16,0,0,0-.58.85q-.11.15-.21.32a4.63,4.63,0,0,0-.31.43,4,4,0,0,0-.52.77v0h0l-.23.37a23.94,23.94,0,0,1-9.41,7.21,20.84,20.84,0,0,1-6.26,1.61c-.69.09-1.43.15-2.22.18v-1a25.88,25.88,0,0,0,14.87-20,4,4,0,0,0,5-5.08c-1.13-3.4-3.6-5.53-6.7-5.84a15.73,15.73,0,0,0-2.42-3.72,20.06,20.06,0,0,0-6.81-5.24,4,4,0,0,0-3.56-5.83h-3.52a23.8,23.8,0,0,1,2.45-.13,24.07,24.07,0,0,1,2.85.17,22.13,22.13,0,0,1,7.2,2.07l.19.09a4,4,0,0,0,1.15.61l.1,0a3.94,3.94,0,0,0,.64.38,4.67,4.67,0,0,0,.4.28,4,4,0,0,0,1.06.66l.09.06a5.13,5.13,0,0,0,.7.55l.29.29a4,4,0,0,0,.73.58l.15.15a4.54,4.54,0,0,0,.76.61l.66.66a4.3,4.3,0,0,0,.42.48,5.1,5.1,0,0,0,.51.6,3.93,3.93,0,0,0,.34.31l.05.06a4,4,0,0,0,.6.9c.07.1.17.22.3.37l.47.71a4,4,0,0,0,.62,1l.13.19c.16.32.34.66.52,1a4,4,0,0,0,.5,1c.11.32.22.58.31.8l.09.2a4,4,0,0,0,.3.82v0a4.5,4.5,0,0,0,.16.5c0,.09.05.18.08.26a4.67,4.67,0,0,0,.12.46,4,4,0,0,0,.21.76,4.15,4.15,0,0,0,.13.43c0,.15.07.29.11.43a4.68,4.68,0,0,0,.11.46,5,5,0,0,0,.12.63,5.65,5.65,0,0,0,.14,1v.12a5,5,0,0,0,.15,1.25ZM578,512.32V500.41a9.64,9.64,0,0,1,1.46,2.67l.08.21a7.5,7.5,0,0,1,.59,3.49A12.83,12.83,0,0,1,578,512.32Zm64.42,47a5.36,5.36,0,0,1-.33-2.16v-9.35a7.12,7.12,0,0,0,3.07,1.16,16,16,0,0,0,2.48,3.73,19.13,19.13,0,0,0,10.46,6.62Zm30.69-12.44a5.66,5.66,0,0,0-1.68-.26,5.12,5.12,0,0,0-4.83,3.58,5.75,5.75,0,0,1-.65,0h-.57a8,8,0,0,1-4.35-1.46,10.31,10.31,0,0,1-3.83-4.4,11.55,11.55,0,0,1-.48-4.91c0-.07,0-.15,0-.22a7.87,7.87,0,0,1,3.86-4.93l.16-.06.67-.28a8.6,8.6,0,0,1,3.29-.64,9,9,0,0,1,1.21.08c5.5.63,7.46,6.08,7.46,10.54A15.25,15.25,0,0,1,673.07,546.9Z"/><path class="cls-1" d="M492.62,637.62a6.33,6.33,0,0,0-.16-1.54,17.79,17.79,0,0,0-.29-2.33l0-.12a5,5,0,0,0-.16-.84,6.29,6.29,0,0,0-.14-.74,4,4,0,0,0-.26-1l0-.13a4,4,0,0,0-.26-1l0-.09a36.9,36.9,0,0,0-6.1-12.16,3.82,3.82,0,0,0-.34-.38l-.48-.51a5.63,5.63,0,0,0,.2-.9,10.1,10.1,0,0,0,1.44-6.4,8.46,8.46,0,0,0-3.75-5.84,4,4,0,0,0-6.29,3.51h-.38a21.74,21.74,0,0,1-7-1.55,40.21,40.21,0,0,0-7.68-1.79,39.18,39.18,0,0,0-4.6-.27A35.68,35.68,0,0,0,434.14,611a36.47,36.47,0,0,0-13.85,24.24,26.42,26.42,0,0,0,5.22,19.23,25.91,25.91,0,0,0,17.25,9.86l.38,0V692a4.71,4.71,0,0,1-.34,2.07,4,4,0,0,0-3,2.32l-.59,1.32a4,4,0,0,0,3.65,5.63h14.52a4,4,0,0,0,3.5-5.94l-.73-1.32a4,4,0,0,0-2.78-2,5.47,5.47,0,0,1-.38-2.37V676.08a22.08,22.08,0,0,0,4.06-.33,33.08,33.08,0,0,0,9.47-2.47l.25-.12.76-.38a21.59,21.59,0,0,0,2.68-1.36,4,4,0,0,0,1-.54l.11-.05a4,4,0,0,0,.62-.39,4,4,0,0,0,1.1-.75l.28-.23a4.06,4.06,0,0,0,.55-.35,38.1,38.1,0,0,0,7.37-7.23c.68-.9,1.31-1.89,1.93-2.85.28-.44.56-.87.84-1.29a4.11,4.11,0,0,0,.25-.43l.44-.88a4.05,4.05,0,0,0,.21-.51l.06-.12a5.24,5.24,0,0,0,.53-1.17A35.89,35.89,0,0,0,492.62,639Zm-52.78-6.14a4,4,0,0,0,.5.61l.29.29a4,4,0,0,0,1,.75,4.83,4.83,0,0,0,.89.34,7.39,7.39,0,0,0-5.16,3.2,9.93,9.93,0,0,0-1.59,8.83,32.75,32.75,0,0,0,.61,1.36,12.21,12.21,0,0,0,.7,1.14,14.5,14.5,0,0,1-1.38-1.57,12.94,12.94,0,0,1-2.69-9.64,23.27,23.27,0,0,1,8.84-15.47,4,4,0,0,0,.25.77l.57,1.29a21.56,21.56,0,0,0-1.81,1.21,4,4,0,0,0-.43.38A5.12,5.12,0,0,0,439.84,631.49Zm39.94,8a23.91,23.91,0,0,1-3.16,12.07,4,4,0,0,0-.42.6,4,4,0,0,0-.38.6l-.08.1a4,4,0,0,0-.65.91v0h0l-.24.37a23.92,23.92,0,0,1-9.4,7.2,20.81,20.81,0,0,1-6.26,1.61c-.69.09-1.43.15-2.22.18v-1a25.88,25.88,0,0,0,14.87-20,4,4,0,0,0,5-5.08c-1.14-3.41-3.62-5.54-6.73-5.84a16,16,0,0,0-2.39-3.72,19.67,19.67,0,0,0-6.81-5.23,4,4,0,0,0-3.55-5.84h-3.52a23.74,23.74,0,0,1,2.45-.13,24,24,0,0,1,2.85.17,26.25,26.25,0,0,1,7.37,2.15h0a4,4,0,0,0,1.16.61h0a4.11,4.11,0,0,0,.78.44l.35.24a4,4,0,0,0,1.07.67l.09.06a5.23,5.23,0,0,0,.7.56l.29.29a4,4,0,0,0,.7.56l.17.17a5.49,5.49,0,0,0,.89.74l.53.53a4.24,4.24,0,0,0,.42.48,5.12,5.12,0,0,0,.51.6,4,4,0,0,0,.34.3l0,.06,0,.06a5.28,5.28,0,0,0,1,1.38l.36.53a4,4,0,0,0,.62,1l.12.18c.16.32.34.66.52,1a4,4,0,0,0,.5,1c.11.32.22.58.31.79l.09.2a4,4,0,0,0,.31.83v0a4.5,4.5,0,0,0,.16.5l.08.26a4.55,4.55,0,0,0,.12.46,4,4,0,0,0,.21.75,4.07,4.07,0,0,0,.13.44q0,.22.11.43c0,.14.05.27.09.39a4.6,4.6,0,0,0,.14.8,5.57,5.57,0,0,0,.13.92V637a5,5,0,0,0,.15,1.24ZM457,645.93v-12a9.62,9.62,0,0,1,1.46,2.67l.08.22a7.48,7.48,0,0,1,.59,3.49A13.11,13.11,0,0,1,457,645.93Z"/><path class="cls-1" d="M577.49,603.41H519.57a3.91,3.91,0,0,1-3.81,0H501.09a4,4,0,0,0-3.5,5.94l.73,1.32a4,4,0,0,0,2.8,2,4.49,4.49,0,0,1,.37,1.85v26.25h-.24a7.35,7.35,0,0,0-5.71,3.39,9.5,9.5,0,0,0-1.45,8.25,5,5,0,0,0,.64,1.67l.06.11a9.9,9.9,0,0,0,6.7,5.3v35.1a5.18,5.18,0,0,1-.33,1.84,4,4,0,0,0-2.92,2.16l-.73,1.47a4,4,0,0,0,3.58,5.79h14.66a4,4,0,0,0,3.58-5.79l-.73-1.47a4,4,0,0,0-2.94-2.16,5.26,5.26,0,0,1-.31-2.06V614.89a5.08,5.08,0,0,1,.36-2.22,4,4,0,0,0,1.8-.84c3.1,7.38,3,9.51,2.93,10a10.51,10.51,0,0,1-1.38.72,4,4,0,0,0,1.68,7.63A13,13,0,0,0,531,625.52a11.77,11.77,0,0,0,2.37-4.46,13.36,13.36,0,0,0,.76-4.8h7.06a4.75,4.75,0,0,1,.34,1.79v22.6h-.15a7.2,7.2,0,0,0-5.58,3.27,9.85,9.85,0,0,0-1.57,8.82,4,4,0,0,0,.25.61l0,.06a4,4,0,0,0,.32.79,10.07,10.07,0,0,0,6.7,5.29V694.6a5.19,5.19,0,0,1-.33,1.84,4,4,0,0,0-3,2.32l-.59,1.32a4,4,0,0,0,3.66,5.63h14.52a4,4,0,0,0,3.5-5.94l-.73-1.32a4,4,0,0,0-2.82-2,4.72,4.72,0,0,1-.34-2.07v-76a5.35,5.35,0,0,1,.33-2.16h7.15a17.86,17.86,0,0,0,.64,4.68q0,.18.11.35a14.62,14.62,0,0,0,2.45,4.26,13,13,0,0,0,10.09,4.64,4,4,0,0,0,1.73-7.61,9.85,9.85,0,0,1-1.32-.71c-.12-.47-.24-2.59,2.91-10.25a4,4,0,0,0,2-3.47v-.73A4,4,0,0,0,577.49,603.41Z"/></g><g id="Top_Letters" data-name="Top Letters"><text class="cls-8" transform="translate(425.9 452.19)">T<tspan class="cls-9" x="40.47" y="0">HE</tspan></text><text class="cls-10" transform="translate(310.64 560.8)">S&apos;MORE</text><text class="cls-11" transform="translate(423.41 694.31)">P<tspan class="cls-12" x="73.61" y="0">I</tspan><tspan class="cls-13" x="116.14" y="0">T</tspan></text></g><g id="Lower_Words" data-name="Lower Words"><path class="cls-3" d="M693.31,788c22.85-8.54,40-32.85,40-32.85-36.41,13.94-44.21-1-84.63-3.94-15.58-1.13-20.88.64-21.52,3.23-.07,1.73,1.7,3.59,3.81,5.19.87-1.31,2.43-2.32,5.19-2.55,12.14-1,24.14,0,42.54,5,21.27,5.8,34.32,4.83,42,1.55,0,0-19,17-36.86,23.57A45.29,45.29,0,0,0,715,797.6s-17.49,14.12-60.06,12c-.11,1.69-.22,3.34-.36,4.88,55.3,4.24,72.33-21.41,72.33-21.41C700.74,794.86,693.31,788,693.31,788Z"/><path class="cls-3" d="M647.72,778.63a8.84,8.84,0,0,0,5.3-1.3,3.21,3.21,0,0,0,1.35-1.83s0,.07,0,.1c.15-2.27-4.16-6-16.43-11.87a44,44,0,0,1-7-4.14c-2.12-1.6-3.89-3.46-3.81-5.19,0,0,0-.1,0-.14s-3.44,14.43-3.19,23.13c9.66,1.06,17,1,23,1.26Z"/><path class="cls-3" d="M521.55,750.77c57.16,26.53,82.44,30.53,102.7,32.58,27,2.74,30.18-.55,30.51-1.69q-.15-3-.38-6.06s0-.07,0-.1a3.21,3.21,0,0,1-1.35,1.83,8.84,8.84,0,0,1-5.3,1.3H647c-6.05-.25-13.34-.2-23-1.26-20.18-2.2-50.78-9.25-102.43-34,0,0-129.81-63.54-173.48-28.86-4.25,4.17-5.27,6.49-5.9,8.91C379.83,685.46,521.55,750.77,521.55,750.77Z"/><path class="cls-3" d="M362.61,809.08c-1.57,7-37.92.75-52.53-3.62-16.14-4.83-31.84-1.68-31.84-1.68,11.35-12.17,33.15-22.47,33.15-22.47-5.87-7.15-18.6-8.79-18.6-8.79,15.2-7.66,33.3-10,44.65-10.68,0-2,.11-4,.21-5.84-51.83,3.17-59.87,20.7-59.87,20.7,16.57,0,22.9,4.31,22.9,4.31-15.92,3.88-40,32.86-40,32.86,36.41-13.95,44.21,1,84.63,3.94,15.58,1.12,20.89-.64,21.52-3.23C366.88,812.73,364.89,810.74,362.61,809.08Z"/><path class="cls-3" d="M352.89,788.78a40.56,40.56,0,0,0-7,.64,16.56,16.56,0,0,0-4.41,1.48c-1.87.94-2.26,1.75-2.28,2.55v.13c-.09,2.58,4.37,6.3,16.77,11.64a45.08,45.08,0,0,1,6.59,3.86c2.28,1.67,4.27,3.65,4.19,5.48,0,0,0,.1,0,.15s3.43-14.82,3.92-25.24A151.27,151.27,0,0,0,352.89,788.78Z"/><path class="cls-3" d="M636.14,842.61C569,841.82,490.89,814.1,490.89,814.1c-66.68-22.12-98.43-30.6-120.21-32.69-27.13-2.6-32.37,2.19-32.68,2.5,0,.16,0,.32,0,.48.28,3.09.69,6.17,1.19,9.18v-.12h0c0-.8.41-1.61,2.28-2.55a16.56,16.56,0,0,1,4.41-1.48,40.56,40.56,0,0,1,7-.64,151.27,151.27,0,0,1,17.84.69c21.81,2.12,54,9.72,121.56,32.43,0,0,85,28,146.38,26.13,5.64-.17,9.59-2.32,10.47-5.06a75.33,75.33,0,0,0,2.25-8.54c-.54,2.16-.92,3.28-.92,3.28C649.34,841.64,644.36,842.71,636.14,842.61Z"/><path class="cls-3" d="M502.39,317h-1.74c-182.75,0-285,85.26-285,85.26V676.12s43.34,36.12,124,61.34c1.2-8,2.48-14.11,2.54-14.17a30.28,30.28,0,0,1,3-2.65,453.36,453.36,0,0,1-45.08-16.79c-32.57-14.2-54.49-28.55-64.48-35.69v-258c10-7.14,31.91-21.49,64.48-35.69,42-18.3,110.83-40.11,200.52-40.11h1.74c89.69,0,158.55,21.81,200.52,40.11,32.57,14.2,54.49,28.55,64.48,35.69v258c-10,7.14-31.91,21.49-64.48,35.69-41.41,18.05-109,39.5-196.93,40.08,9.68,4,15.56,6.7,15.56,6.7,7.53,3.49,14.48,6.59,21,9.34C700,749,787.39,676.12,787.39,676.12V402.26S685.15,317,502.39,317Z"/><path class="cls-3" d="M372.35,721.07l1.67,0a19.85,19.85,0,0,1,2.8.18.46.46,0,0,1-.14.39l-.26.3a11.64,11.64,0,0,0-.87,4.24c-.17,2.38-.49,5.6-.9,9.59,0,.18,0,.42,0,.72s0,.57,0,.69a6.49,6.49,0,0,0,.27,3.21c0,.05.13.15.36.28s.28.25.23.39-.4.15-1,.12l-.76-.06-.53,0-1.32-.12-1-.08a6.56,6.56,0,0,1-1.22-.09.77.77,0,0,1,.3-.43,2.65,2.65,0,0,0,.38-.33,15.9,15.9,0,0,0,.61-3.48c0-.33.07-.95.12-1.85s.09-1.46.14-2l-2.66-.11q-1.67-.07-2.78-.08c-.31,4-.43,5.86-.42,5.94a4,4,0,0,0,.25,1.34c.33.73.5,1,.5,1-.85,0-2.52,0-5,0a2.07,2.07,0,0,1-.85-.12,1,1,0,0,1,.35-.5,2,2,0,0,0,.46-.51,8.39,8.39,0,0,0,.6-2.75c0-.39.08-.94.13-1.65s.1-1.26.13-1.53c.37-3.42.6-6.18.67-7.94,0-.28,0-.7.11-1.23s.13-1,.14-1.23a3.2,3.2,0,0,0-.27-2l-.29-.24a.3.3,0,0,1-.15-.31,2.64,2.64,0,0,1,1.27-.07c1,.08,2.13.1,3.35.13l.26,0,.26,0a.53.53,0,0,1,.47.14c0-.1-.23.21-.63.93a13.54,13.54,0,0,0-.78,4c-.25,2.34-.39,3.65-.44,4.05,2.76.1,4.6.15,5.51.1q.07-.64.17-1.75c.09-.94.15-1.58.18-1.91a14.54,14.54,0,0,0,.08-4.06,2.46,2.46,0,0,0-.19-.42c-.1-.2-.17-.33-.2-.41-.13-.31-.07-.51.17-.59Zm-1.95,12.4-.29,0-.28,0c-1.68-.06-2.81-.07-3.39,0a35.89,35.89,0,0,0-.1,6.55,4.72,4.72,0,0,0,.44.81,1.93,1.93,0,0,1,.32.78,9.16,9.16,0,0,1-1.84.06c-1.18,0-1.92-.06-2.2,0-1.4.05-2.12,0-2.13-.22s.16-.23.49-.22l.38,0,.28,0q2.14.13,4.53.1a8.41,8.41,0,0,0-.46-1,4.66,4.66,0,0,1-.43-1.09,10,10,0,0,1,0-2.87c.21-1.84.33-2.94.34-3.25-.12,0,1.26,0,4.13,0h.35a.26.26,0,0,1,.26.16A.39.39,0,0,1,370.4,733.48Zm-4.11-4a1.71,1.71,0,0,0,0-.28,1.65,1.65,0,0,1,0-.26c0-.11,0-.19,0-.24a29.94,29.94,0,0,1,.91-6.17,3.21,3.21,0,0,1,.85-1.27c.13-.1.18-.14.13-.13.13,0,.2.08.21.27l-.4.54a7.4,7.4,0,0,0-1,3.17c-.06.43-.13,1.06-.21,1.85s-.15,1.4-.19,1.72c0,.06,0,.14,0,.24s0,.22,0,.26a.52.52,0,0,1-.18.42Zm10.92-6.79a4.59,4.59,0,0,0-.41.77,36.15,36.15,0,0,0-.55,4.75c0,.46-.12,1.16-.25,2.11s-.21,1.65-.24,2.12-.11,1.14-.22,2.09-.18,1.63-.21,2.1a7.39,7.39,0,0,0,.53,3.78,3.4,3.4,0,0,0,.26.41l.29.44c.19.36.13.76-.06.82a12.41,12.41,0,0,1-2.71-.15c-1.55-.11-2.43-.16-2.61-.17h-.17l-.17,0a.28.28,0,0,1-.28-.17c.07-.18.28-.26.6-.24a4,4,0,0,1,.42,0l.41.06c.17,0,1.62.07,4.34.22a3.64,3.64,0,0,0-.46-.85,5.06,5.06,0,0,1-.5-.84,8.26,8.26,0,0,1-.19-3.25c.05-.77.2-2.33.44-4.73.22-2.22.38-3.92.47-5a.25.25,0,0,0,0-.15l-.07-.12c0-.18.1-.53.18-1s.17-1,.23-1.34a5,5,0,0,1,.91-2.31.36.36,0,0,1,.35-.12A2.09,2.09,0,0,1,377.21,722.65Z"/><path class="cls-3" d="M391.89,722.9a8.84,8.84,0,0,1,3.6,3.36,10.87,10.87,0,0,1,1.76,8.8,12.75,12.75,0,0,1-1.25,3,8.05,8.05,0,0,1-5.24,4.16,7.65,7.65,0,0,1-3,.22,11.84,11.84,0,0,1-4.38-1.44,10.31,10.31,0,0,1-3.26-2.84,9.87,9.87,0,0,1-1.66-3.24,10.24,10.24,0,0,1,1.25-7.86,15.54,15.54,0,0,1,2.16-2.65,8.78,8.78,0,0,1,6.36-2.4A9.85,9.85,0,0,1,391.89,722.9Zm1.28,7.72a7.17,7.17,0,0,0-1.88-3.39,4.84,4.84,0,0,0-3.65-1.41,5.2,5.2,0,0,0-3.43,1.66,7.22,7.22,0,0,0-2.06,3.4,7.12,7.12,0,0,0,.52,4.37c1.71,2.17,3.32,3.34,4.8,3.52a4.66,4.66,0,0,0,3.54-1,6.1,6.1,0,0,0,2.16-3.39c0-.26.05-.79.15-1.6a6.17,6.17,0,0,0,0-1.69A2.31,2.31,0,0,1,393.17,730.62Zm-4.59-4a4.88,4.88,0,0,0-.88,0,6.72,6.72,0,0,0-2.36.92,5.27,5.27,0,0,0-2,2.11,6.37,6.37,0,0,0-.7,3.24,10.45,10.45,0,0,0,.83,2.71c-.29,0-.57-.32-.85-1.08a5.6,5.6,0,0,1-.38-1.6,7,7,0,0,1,.72-3.39,6.59,6.59,0,0,1,5.59-3.3c.49,0,.79.12.9.29A1.65,1.65,0,0,1,388.59,726.58Zm-2.51,15.86.37.08.34.09a8.35,8.35,0,0,0,7.78-2,10.45,10.45,0,0,0,3.27-7.78,11.51,11.51,0,0,0-.3-2.91,6.68,6.68,0,0,0-1-2.44.13.13,0,0,1,0-.1.2.2,0,0,0,0-.08q.16-.13.18,0a7.37,7.37,0,0,1,1.14,2.91,11.68,11.68,0,0,1,.17,3.62,10.41,10.41,0,0,1-4.16,7.7,9.17,9.17,0,0,1-8.6,1A1,1,0,0,1,386.08,742.45Z"/><path class="cls-3" d="M411.49,731.82q-.14.24-1.92,3-1.21,1.85-1.89,3.12a.34.34,0,0,1-.32-.24,1,1,0,0,1,0-.2.68.68,0,0,0,0-.18c-.26-.75-1.23-3.1-2.83-7q-.1,1.14-.19,3.2c-.06,1.39-.11,2.44-.16,3.15-.19,2.62-.28,3.87-.28,3.76,0,.1,0,.28.07.55s.07.48.08.62a9.34,9.34,0,0,0,.23,2.06,2.9,2.9,0,0,0,.31.43.89.89,0,0,1,.21.52l-1.88-.31c-.21,0-.56-.07-1.05-.11s-.86-.08-1.11-.12a8.48,8.48,0,0,1-2-.47s.19-.19.54-.72a4.86,4.86,0,0,0,.6-2.14c0-.31.06-.76.08-1.34s.06-1.16.08-1.41c0-.46.14-1.91.32-4.34.14-1.82.27-3.27.37-4.34a21.28,21.28,0,0,0,.11-4c0,.05-.25-.59-.77-1.93a2.88,2.88,0,0,1,1.39.09l1.61.29,1.56.27q.19.38.83,1.94l1.19,3q.76,1.92,1.23,3a31.1,31.1,0,0,0,2.06-3.19l1.94-3.32a.43.43,0,0,0,0-.26.28.28,0,0,1,.05-.26,15.81,15.81,0,0,1,1.83.28l1.75.35a2.93,2.93,0,0,1,1.26.39,1.43,1.43,0,0,1-.38.56,2.16,2.16,0,0,0-.43.58c0,.09-.12.8-.25,2.13,0,.09-.23,3.72-.56,11a38.45,38.45,0,0,0,0,4.4,3.71,3.71,0,0,0,.32,1.24l.27.4a.57.57,0,0,1,.11.43,3,3,0,0,1-1.26-.07c-.35-.06-1.07-.23-2.16-.49a17.64,17.64,0,0,0-2.16-.42.53.53,0,0,1,.29-.4,1.16,1.16,0,0,0,.4-.34,11.64,11.64,0,0,0,.36-2.85c.1-1.63.16-2.83.16-3.58,0-.35,0-.92,0-1.68s0-1.27,0-1.62,0-.88.08-1.69.05-1.34.06-1.71Zm-6.7.63c.08.07.13.38.11.92s0,1.22-.11,2.16-.11,1.69-.12,2.18c-.07,2.57-.09,3.83-.09,3.77a6,6,0,0,0,1.07,3.47.5.5,0,0,0,.08.31.47.47,0,0,1,.06.33c-.65,0-2.5-.33-5.54-.79l-.29,0a1.51,1.51,0,0,1-.29,0,.63.63,0,0,1-.47-.32q.1-.1.44-.06c.44,0,1.44.19,2.95.46a20.39,20.39,0,0,0,2.75.37,10.94,10.94,0,0,1-1.25-4.1c0-.4.14-2.87.49-7.42,0-.1,0-.29,0-.57a2.25,2.25,0,0,1,0-.55.21.21,0,0,1,.12-.11Zm.92-7.33c1,2.53,1.64,4.21,2,5l.1.19.11.19a.61.61,0,0,1,.07.44.28.28,0,0,1-.35-.17l-.21-.52c-.12-.29-.5-1.28-1.13-2.95-.47-1.22-.85-2.15-1.13-2.78.08-.11.15-.16.2-.15A2,2,0,0,1,405.72,725.13Zm5.49,8.16a.52.52,0,0,1,0,.54,2.52,2.52,0,0,1-.17.24,2.86,2.86,0,0,0-.2.25l-1.09,1.85q-1.54,2.63-1.47,2.45a.37.37,0,0,0-.27,0c-.12,0-.27,0-.29,0s0-.25.13-.36a1.19,1.19,0,0,1,.13-.14l.13-.13q.2-.28,1.25-2,1.28-2,1.68-2.77Zm-.31,13.47c0-.26.3-.34.73-.28a4,4,0,0,1,.57.14l.5.14c1,.21,1.89.39,2.51.49a4.81,4.81,0,0,0,.76.11.92.92,0,0,1,.62.47C415.11,747.65,413.21,747.28,410.89,746.76Zm6-19.8-.08.1-.08.12a21.27,21.27,0,0,0-.63,4.5c0,.52-.06,1.36-.09,2.51s-.08,1.88-.1,2.43c0,.14,0,.34,0,.61s0,.52,0,.63c0,.49-.06,1.28-.13,2.33s-.09,1.79-.1,2.31a7.16,7.16,0,0,0,.81,3.87,3,3,0,0,0,.31.35.91.91,0,0,1,.26.38.61.61,0,0,1-.22.71q-.15,0-.14-.26a1.6,1.6,0,0,1,0-.18c0-.08,0-.13,0-.16a14.22,14.22,0,0,1-1.17-2,12,12,0,0,1-.2-2.89c0-1.07.06-2.72.18-4.92.17-3,.26-4.67.27-4.91s0-.6,0-1.48c0-.68,0-1.24.08-1.66.16-1.84.49-2.74,1-2.69A.35.35,0,0,1,416.91,727Z"/><path class="cls-3" d="M432,733.07l-.34-.12a3.29,3.29,0,0,0-.56-.17,2.78,2.78,0,0,0-.33-1c-.45-.41-3.7-.84-7.85-1.56q-.09,1-.13,2.86c0,1.35-.07,2.37-.12,3.07a2.93,2.93,0,0,0,1.67.41.94.94,0,0,0,.87-1,1,1,0,0,0,.49.13.54.54,0,0,1,.41.19,17.52,17.52,0,0,0-.16,2.13c0,1.07-.08,1.81-.13,2.19a.59.59,0,0,1-.87-.11,2.75,2.75,0,0,1-.32-.44,5.28,5.28,0,0,0-.28-.45,5.76,5.76,0,0,0-.94-.19l-.81-.16c-.08.69-.17,2.55-.26,5.64.88.31,2.89.77,6,1.45l1.77.39a.83.83,0,0,0,1-.75,5.27,5.27,0,0,1,1,.45c-.08.23-.34.89-.77,2a9.91,9.91,0,0,0-.61,2,56.51,56.51,0,0,1-6.34-1.4c-.8-.21-2-.49-3.61-.83l-3.33-.71a1.78,1.78,0,0,1,.38-.81,5.49,5.49,0,0,0,.91-2.68c.37-5.09.56-9.68.55-13.74a7.53,7.53,0,0,0-.17-1.76,4.36,4.36,0,0,0-.54-1.14,3.94,3.94,0,0,1-.51-1c5.63,1.08,9.72,2,12.25,2.45a1.61,1.61,0,0,1,.82.31,9,9,0,0,1,.6,2.1c.28,1.26.45,2,.49,2.3Zm.64,13.43a.65.65,0,0,1,0,.58l-.12.3-.12.28a36.19,36.19,0,0,1-1.38,3.4s-3.85-1-11.53-2.69l-.23,0-.28,0a.62.62,0,0,1-.45-.34,5.52,5.52,0,0,1,2.31.35l2.58.76c.85.2,2.06.44,3.6.75,1.7.34,3,.63,3.77.81a12.62,12.62,0,0,0,.89-2c.43-1.18.69-1.9.8-2.15ZM423.92,740l-.25-.07-.32,0a2.47,2.47,0,0,0-.07.71c0,.43,0,.69,0,.77s0,.61,0,1.75c0,.67-.1,1.07-.29,1.21a12.54,12.54,0,0,1,0-2.37c.07-1.28.09-2.11.08-2.49a2.42,2.42,0,0,0,.78.08c.26,0,.42.11.47.31A.28.28,0,0,1,423.92,740Zm6.53-7.71a1,1,0,0,0,.75,1l1.18.44c-.13.12-.4.12-.81,0l-1-.28a1.2,1.2,0,0,0-.11-.39,2.63,2.63,0,0,1-.17-.46c-3-.73-6.3-1.59-6.54-1.42a16.1,16.1,0,0,0-.22,3.24,3.8,3.8,0,0,0,0,.42c0,.19,0,.33,0,.42,0,.32-.09.52-.26.61a12.31,12.31,0,0,1-.05-2.66c.1-1.58.15-2.4.14-2.49C425.18,731.07,427.53,731.59,430.45,732.24Zm-3.76,3.91a35.19,35.19,0,0,1-.24,5.15,1.66,1.66,0,0,0-.77-.12c-.27,0-.44-.07-.49-.21s.15-.21.4-.14a1,1,0,0,0,.56.06,19.85,19.85,0,0,0,.2-2.31c.05-1.17.1-2,.17-2.46Z"/><path class="cls-3" d="M445.84,739.08c-.09.15-.69,1.1-1.81,2.91-.76,1.22-1.35,2.27-1.77,3.13a.4.4,0,0,1-.33-.28,1.14,1.14,0,0,1-.05-.21.84.84,0,0,0-.05-.2c-.28-.82-1.31-3.42-3.05-7.59,0,.77-.06,1.87-.07,3.3s0,2.56-.06,3.32c-.1,2.77-.16,4.14-.17,4,0,.11,0,.31.09.6s.08.52.1.68A11.6,11.6,0,0,0,439,751a3.69,3.69,0,0,0,.32.49,1.11,1.11,0,0,1,.22.58l-1.87-.48c-.21-.05-.56-.12-1-.2s-.86-.15-1.1-.21a8.39,8.39,0,0,1-2-.67c0,.05.18-.2.51-.75a5.26,5.26,0,0,0,.53-2.29c0-.34,0-.82,0-1.45s0-1.25,0-1.52c0-.49.08-2.06.18-4.61.07-1.91.15-3.4.21-4.48a21.44,21.44,0,0,0,0-4c0,.05-.27-.62-.84-2a3,3,0,0,1,1.38.24l1.62.46,1.56.44c.14.26.43.92.9,2,.24.56.67,1.59,1.29,3.13.55,1.35,1,2.42,1.33,3.19a29.35,29.35,0,0,0,1.93-3c1.09-1.89,1.69-2.87,1.8-3.06a.39.39,0,0,0,0-.25.24.24,0,0,1,0-.24,17.63,17.63,0,0,1,1.83.49l1.75.55a3.48,3.48,0,0,1,1.26.53,1.09,1.09,0,0,1-.36.49,1.66,1.66,0,0,0-.41.51c0,.08-.09.76-.17,2.06,0,.08-.08,3.57-.21,11.3a46,46,0,0,0,.1,4.69,4.58,4.58,0,0,0,.34,1.36l.28.45a.68.68,0,0,1,.12.47,2.79,2.79,0,0,1-1.25-.15q-.53-.14-2.15-.67a17.51,17.51,0,0,0-2.15-.6.51.51,0,0,1,.28-.42,1.06,1.06,0,0,0,.39-.34,13.08,13.08,0,0,0,.28-3q.09-2.62.06-3.81c0-.37,0-1-.07-1.78s-.06-1.33-.07-1.7,0-.92,0-1.75,0-1.37,0-1.75Zm-6.63,0a1.9,1.9,0,0,1,.15,1c0,.51,0,1.27,0,2.26s-.06,1.78-.05,2.31c0,2.74,0,4.12,0,4.05a7.62,7.62,0,0,0,1.15,3.86.61.61,0,0,0,.09.34.58.58,0,0,1,.06.37c-.65-.1-2.48-.54-5.52-1.29l-.29,0a1.42,1.42,0,0,1-.29-.06.73.73,0,0,1-.48-.38c.06-.07.21-.08.44,0,.44.09,1.43.33,2.94.74a19,19,0,0,0,2.74.61,14,14,0,0,1-1.34-4.56c0-.44.07-3.15.25-7.88,0-.1,0-.3,0-.59a2.34,2.34,0,0,1,0-.57.18.18,0,0,1,.12-.11Zm.65-7.32c1.06,2.59,1.79,4.37,2.17,5.25l.1.2.12.21a.67.67,0,0,1,.09.45c-.14,0-.26,0-.35-.21l-.23-.55c-.13-.31-.54-1.36-1.23-3.09-.51-1.27-.93-2.22-1.23-2.86.08-.09.15-.13.2-.12A2.34,2.34,0,0,1,439.86,731.76Zm5.75,8.79a.54.54,0,0,1,0,.55,2,2,0,0,1-.16.23,2.42,2.42,0,0,0-.19.24c-.05.09-.39.69-1,1.84-1,1.76-1.43,2.6-1.38,2.47a.34.34,0,0,0-.26,0c-.11,0-.26,0-.29,0s0-.26.12-.37a1,1,0,0,1,.12-.14l.12-.12c.13-.18.52-.85,1.18-2,.8-1.36,1.33-2.26,1.58-2.74Zm.07,14.31c0-.28.29-.35.72-.25a3.89,3.89,0,0,1,.57.19l.5.19c1,.3,1.88.54,2.49.69a4.6,4.6,0,0,0,.76.16,1,1,0,0,1,.62.55A55.25,55.25,0,0,1,445.68,754.87Zm5.38-20-.08.09-.08.1a19.5,19.5,0,0,0-.47,4.38c0,.52,0,1.36,0,2.54s0,1.93,0,2.5c0,.14,0,.36,0,.63s0,.54,0,.65c0,.51,0,1.33-.06,2.44s0,1.89,0,2.44a8.7,8.7,0,0,0,.89,4.2,3.56,3.56,0,0,0,.32.39,1.11,1.11,0,0,1,.26.43.65.65,0,0,1-.2.75q-.15-.06-.15-.28s0-.11,0-.19,0-.14,0-.17a17.68,17.68,0,0,1-1.2-2.23,14.41,14.41,0,0,1-.27-3.11c0-1.14,0-2.89,0-5.19.08-3.16.11-4.79.11-5s0-.61,0-1.49c0-.68,0-1.23,0-1.65.09-1.8.39-2.62.87-2.52A.32.32,0,0,1,451.06,734.82Z"/><path class="cls-3" d="M462.82,737.81a.58.58,0,0,0-.3.27,5.77,5.77,0,0,0,.42,2.6c.24.83.61,2.13,1.1,4s.81,3,1.07,4c.88,3.17,1.38,5.06,1.5,5.56a36.4,36.4,0,0,0,1.62,5.52q.6,1.25.61,1.14a.35.35,0,0,1-.22,0,1,1,0,0,0-.31,0c-.6-.24-1.49-.56-2.68-1s-1.9-.64-2.45-.88a1.07,1.07,0,0,1,.43-.66,5.23,5.23,0,0,1,.12-.81,2.28,2.28,0,0,0,0-.84c-.16-1-.45-2.87-1-3.42-1.14-1.07-3.95-1.34-4.44-1.46a11.46,11.46,0,0,0-.93,4.17,2.4,2.4,0,0,0,.27.65.78.78,0,0,1,.12.57,48.1,48.1,0,0,1-5.65-1.68c0-.11.12-.26.38-.45a2,2,0,0,1,.48-.3c.27-.5.87-2.06,1.79-4.61.38-1,.8-2.43,1.26-4.13.07-.29.36-1.34.85-3.07.35-1.21.63-2.22.85-3,0-.12.1-.36.22-.73a7.32,7.32,0,0,0,.23-.82,2.89,2.89,0,0,0,0-1.72,1.76,1.76,0,0,0-.27-.46,2.88,2.88,0,0,1-.3-.45c0-.09.29-.07.73.07s1,.35,2.1.74q1.28.47,2.1.71l.18,0,.18,0a.5.5,0,0,1,.33.22S463,737.7,462.82,737.81Zm-1.11,16-1.47-.47a12.67,12.67,0,0,0-1.42-.4,7.37,7.37,0,0,0-.69,3.07,4.73,4.73,0,0,0,.44,1.31,2.2,2.2,0,0,1,.29,1.15,15.77,15.77,0,0,1-2.37-.58c-1.47-.44-2.38-.68-2.69-.76l-.23,0-.21,0a.61.61,0,0,1-.38-.27q.08-.33.36-.28a2.42,2.42,0,0,0,.54.22,22.21,22.21,0,0,0,2.38.67c1.18.28,1.91.48,2.21.58a6.69,6.69,0,0,0-.42-1.06,3.7,3.7,0,0,1-.35-1.17,4.35,4.35,0,0,1,.29-1.86c0-.1.14-.36.33-.79a6.36,6.36,0,0,0,.27-.75q.51.21,1.38.48l1.38.44.31.09.33.09a.75.75,0,0,1,.48.47C462.4,754,462.14,753.94,461.71,753.81ZM460.58,750a13.27,13.27,0,0,0,1.37.4c-.93-2.82-1.44-4.27-1.51-4.45-.12.35-.35.94-.68,1.76s-.53,1.36-.67,1.82Zm-.4-1.67a1.9,1.9,0,0,0-.13.33l-.12.35a.71.71,0,0,1-.4.44.33.33,0,0,0-.12-.18,12.45,12.45,0,0,1,1-2.34.64.64,0,0,1,.23.15C460.62,747.23,460.45,747.65,460.17,748.29Zm3.58-9.84a2.16,2.16,0,0,0-.22.42,2.76,2.76,0,0,0,0,1.07c.13.7.9,3.62,2.35,9.22.23.9.66,2.5,1.3,4.84s1.13,4,1.5,5a13.83,13.83,0,0,0,.61,1.43l.29.43a5.38,5.38,0,0,1,.3.48q.3.58,0,.76a30.2,30.2,0,0,1-4.51-1.36,6.61,6.61,0,0,1-1.34-.58c.09-.15.26-.19.5-.14a2,2,0,0,1,.31.1l.31.12c2.93,1,4.45,1.48,4.54,1.51s-.27-.36-.81-1.39c-.07-.14-.27-.71-.61-1.71l-.33-.87c-.14-.36-.24-.64-.29-.82-.15-.52-.34-1.3-.57-2.31s-.44-1.86-.59-2.37c-.78-2.79-1.2-4.28-1.27-4.53s-.28-1-.63-2.2c-.27-.92-.47-1.68-.61-2.27-.31-1.32-.49-2.05-.54-2.22a10.66,10.66,0,0,1-.42-1.81,1.29,1.29,0,0,1,.42-1.26.29.29,0,0,0,.18,0,.26.26,0,0,1,.2,0A.62.62,0,0,1,463.75,738.46Z"/><path class="cls-3" d="M470.57,760.81a.7.7,0,0,1,.2-.11l.18-.08a3.12,3.12,0,0,1,.14-.38l.16-.37a1,1,0,0,0,0-.77c0-.14.08-1.49.12-3.95.06-3.41.14-6.61.27-9.54a10,10,0,0,0-.51-4.49l-.27-.46a.72.72,0,0,1-.16-.44c.57,0,3.51,1.07,8.81,3.44a12.47,12.47,0,0,1,1.68.87,16.7,16.7,0,0,1,3.69,3.78,14.73,14.73,0,0,1,1.11,2.54,20.05,20.05,0,0,1,.39,4.92,19.19,19.19,0,0,1-.7,6,4.52,4.52,0,0,1-2.81,2.91,6,6,0,0,1-2.74,0A13.74,13.74,0,0,1,478,764c-1.22-.46-2-.73-2.26-.82-.43-.13-1.12-.39-2.06-.74s-1.58-.55-2-.69a1.61,1.61,0,0,0-.38-.05l-.33,0a.76.76,0,0,1-.55-.49A.35.35,0,0,1,470.57,760.81Zm16.34-6.27a.73.73,0,0,1,.2.47s0,.12,0,.22v.22a18.93,18.93,0,0,1-.55,6.14,6.27,6.27,0,0,1-.37.89,2.33,2.33,0,0,0-.26.89c-.06,0-.11,0-.14.16s-.09.16-.17.13a1.7,1.7,0,0,1-.73.95,4.42,4.42,0,0,0-.89.72q-1.44.81-4.44.05a49,49,0,0,1-6.77-2.44l-.82-.24a1.61,1.61,0,0,1-.74-.45c0-.18.14-.23.38-.15l.33.13.31.14a68.23,68.23,0,0,0,8.14,2.75,4.83,4.83,0,0,0,3.46-.32c.78-.45,1.23-.89,1.33-1.34,1.17-1.52,1.73-4.18,1.66-7.82,0-.79,0-1.16,0-1.12Zm-4.69,4.25a7.37,7.37,0,0,0,.38-1.84c0,.08,0-.82.06-2.62a10.87,10.87,0,0,0-.68-4.51l-.59-.87a6.12,6.12,0,0,0-.63-.84,8.56,8.56,0,0,0-2.52-1.8c.12.07-.81-.35-2.79-1.23v.13c0,.59,0,1.47,0,2.66s0,2.27,0,2.82c-.12,4.08-.16,7.15-.16,8.93,2.61,1,4.57,1.32,5.51.81A3.44,3.44,0,0,0,482.23,758.79Zm-.94-9a3.78,3.78,0,0,1-.27-.36l-.27-.36a14.23,14.23,0,0,0-4.49-2.84,18,18,0,0,0-.05,3.14c0,1.72,0,2.86,0,3.34,0,.26,0,.73-.05,1.38s-.06,1.06-.06,1.4c0,2.12,0,3.34,0,3.56a.82.82,0,0,1-.35-.08c0-.94,0-2.6.07-4.91,0-2.13,0-3.71,0-4.79,0-.09,0-.52,0-1.26a5.47,5.47,0,0,0-.08-1.32.7.7,0,0,0,.09-.43,1.38,1.38,0,0,1,0-.46.16.16,0,0,0,0-.11s0,0,0,.06a10.89,10.89,0,0,1,4.68,2.74,10.19,10.19,0,0,1,.67.81l.47.65a.69.69,0,0,1,.08.65Q482,750.63,481.29,749.8Z"/><path class="cls-3" d="M502.15,756.82l-.34-.18a4.32,4.32,0,0,0-.56-.28,2.94,2.94,0,0,0-.35-1c-.51-.54-3.68-1.58-7.82-3.22,0,.64,0,1.54,0,2.71s0,2.28,0,2.95a3.56,3.56,0,0,0,1.66.74c.52,0,.81-.2.84-.77a1.28,1.28,0,0,0,.48.23.71.71,0,0,1,.4.26,16.13,16.13,0,0,0-.1,2c0,1,0,1.74-.08,2.1q-.45.24-.86-.27a3.59,3.59,0,0,1-.33-.5c-.17-.29-.26-.47-.29-.5a6.6,6.6,0,0,0-.93-.37l-.79-.32c-.06.66-.1,2.48-.12,5.54q1.31.69,5.92,2.45l1.74.67c.52.12.83-.07.93-.56a6.69,6.69,0,0,1,1,.6c-.07.21-.32.8-.73,1.77a8.1,8.1,0,0,0-.57,1.87,57.58,57.58,0,0,1-6.21-2.32c-.79-.34-2-.8-3.54-1.39l-3.26-1.25a1.53,1.53,0,0,1,.35-.77,4.85,4.85,0,0,0,.82-2.57c.23-5.08.27-9.61.12-13.49a7.46,7.46,0,0,0-.24-1.71,5.48,5.48,0,0,0-.57-1.2,5.1,5.1,0,0,1-.55-1.1c5.63,2.38,9.72,4.13,12.25,5.15a2.22,2.22,0,0,1,.82.47,9.64,9.64,0,0,1,.65,2.08c.31,1.24.49,2,.54,2.25Zm.87,12.83a.63.63,0,0,1,.05.56,2.83,2.83,0,0,1-.12.26l-.12.25a30.41,30.41,0,0,1-1.3,3s-3.78-1.49-11.3-4.38l-.22-.05-.27-.09a.77.77,0,0,1-.44-.41,5.82,5.82,0,0,1,2.26.71l2.53,1.16c.83.33,2,.75,3.52,1.28,1.67.59,2.9,1,3.69,1.34a10.14,10.14,0,0,0,.85-1.81c.4-1.06.65-1.7.76-1.93Zm-8.68-7.9-.25-.11-.31-.11a2.28,2.28,0,0,0-.05.68c0,.42,0,.68,0,.75s0,.6,0,1.73c0,.66-.08,1-.26,1.15a13,13,0,0,1-.08-2.36c0-1.26,0-2.07,0-2.44a2.72,2.72,0,0,0,.77.24.54.54,0,0,1,.47.39C494.62,761.79,494.52,761.81,494.35,761.76Zm6.25-6a1.33,1.33,0,0,0,.77,1.09l1.17.66c-.13.08-.4,0-.79-.15l-1-.49a1.39,1.39,0,0,0-.12-.39,3.31,3.31,0,0,1-.18-.47c-3-1.33-6.37-2.87-6.51-2.79a17.69,17.69,0,0,0-.12,3.06,3.44,3.44,0,0,0,0,.41c0,.19,0,.33,0,.41q0,.46-.23.53a12.2,12.2,0,0,1-.13-2.58c0-1.49.07-2.26.07-2.35Q496.24,753.86,500.6,755.72ZM497,758.63a31.94,31.94,0,0,1-.12,4.93,1.93,1.93,0,0,0-.76-.26c-.27,0-.43-.15-.48-.3s.14-.18.39-.06.5.19.55.16a17.79,17.79,0,0,0,.14-2.21c0-1.12.05-1.9.1-2.33Z"/><path class="cls-3" d="M539.72,768.64a13.8,13.8,0,0,1,3.79,3.92c2,3,2.77,5.78,2.24,8.52a9,9,0,0,1-1.07,2.55,5.6,5.6,0,0,1-4.92,2.93,7.29,7.29,0,0,1-3-.46,14.55,14.55,0,0,1-4.35-2.52,17.06,17.06,0,0,1-5.19-7.62,10.79,10.79,0,0,1-.46-4.14,5.88,5.88,0,0,1,1.11-3.18,7.19,7.19,0,0,1,1.93-1.74c1.5-.9,3.54-.92,6.13-.14A16.11,16.11,0,0,1,539.72,768.64ZM541.5,776a9.75,9.75,0,0,0-2.08-3.62,7.64,7.64,0,0,0-3.71-2.32,4.07,4.07,0,0,0-5.06,3.11,8.27,8.27,0,0,0,.81,4.48q2.73,4,4.91,4.8a3.91,3.91,0,0,0,3.41-.13,4,4,0,0,0,1.93-2.76,14.38,14.38,0,0,1,.05-1.48,5.7,5.7,0,0,0-.1-1.59A2.63,2.63,0,0,1,541.5,776Zm-4.79-5a6.42,6.42,0,0,0-.87-.29,5.52,5.52,0,0,0-2.27.15,2.83,2.83,0,0,0-1.77,1.4,4.91,4.91,0,0,0-.46,2.93,14.51,14.51,0,0,0,1,2.93c-.28,0-.58-.48-.9-1.33a7.42,7.42,0,0,1-.48-1.7,5.41,5.41,0,0,1,.47-3.08,3.13,3.13,0,0,1,2.1-1.51,5.42,5.42,0,0,1,3.18.1,1.81,1.81,0,0,1,.91.52A1.72,1.72,0,0,1,536.71,771Zm-1.5,14.76.37.17.34.17c3,1.33,5.48,1.21,7.5-.27s2.89-3.69,2.8-6.7a10.87,10.87,0,0,0-.46-2.76,8,8,0,0,0-1.14-2.46.09.09,0,0,1,0-.09.12.12,0,0,0,0-.06c.1-.05.17,0,.18.06a8.68,8.68,0,0,1,1.29,2.91,10.56,10.56,0,0,1,.37,3.39c-.21,3.12-1.45,5.3-3.69,6.47s-5.11,1-8.34-.86A.86.86,0,0,1,535.21,785.77Z"/><path class="cls-3" d="M559.89,787.24a13.69,13.69,0,0,0,1.43,3.79,5.64,5.64,0,0,0,2.43,2,7.78,7.78,0,0,1,0,1.56,7.28,7.28,0,0,1-2.9-1,10.27,10.27,0,0,1-3.41-4.16c-.23-.45-.63-1.3-1.19-2.54-.48-1.07-.88-1.87-1.19-2.42a5.77,5.77,0,0,0-2.6-1.32c.08,4.36.14,6.66.17,6.8a2.86,2.86,0,0,0,.38.77,2.38,2.38,0,0,1,.34.71c-.9-.21-2.86-.76-5.88-1.72a.37.37,0,0,1,.2-.35l.34-.22a1.69,1.69,0,0,0,.2-.33.43.43,0,0,1,.28-.25c.26-.72.36-2.83.3-6.26q-.05-2.87,0-5.07c0-.08,0-.51.05-1.29,0-.53,0-1,0-1.32a6,6,0,0,0-.42-2.34,11.61,11.61,0,0,1-.84-1.14.91.91,0,0,1,.72,0l.89.31c.64.22,2.17.7,4.52,1.41,1.86.56,3.35,1,4.45,1.45a10.32,10.32,0,0,1,3.38,2.07,6.44,6.44,0,0,1,1.6,1.92,5.11,5.11,0,0,1,.3,2.29,4.62,4.62,0,0,1-.48,2,2.77,2.77,0,0,1-2,1.11,8.82,8.82,0,0,1-2.86,0A7.27,7.27,0,0,1,559.89,787.24Zm-6.69-3.52a.23.23,0,0,0,.16.06c-.38,3.43-.16,6,.66,7.61a4.94,4.94,0,0,0,.47.87c-.06.26-.59.23-1.6-.06-.3-.09-.7-.23-1.17-.4l-.81-.3c-1.47-.55-2.42-.8-2.54-.9.08-.13.24-.14.47-.06l.3.13.3.13c.6.19,1.35.42,2.23.67l2.34.65a4.1,4.1,0,0,0-.65-1.35,9.59,9.59,0,0,1-.5-3.56c0-.4,0-1,.08-1.81s.06-1.28.05-1.62a.13.13,0,0,1,0-.08.11.11,0,0,0,0-.07A.27.27,0,0,1,553.2,783.72Zm6.31-5.14a4.21,4.21,0,0,0-1.27-1,14.44,14.44,0,0,0-2.84-1c-1.48-.42-2.41-.71-2.77-.85a27,27,0,0,0,0,4.09c.34.08,1.09.28,2.23.6a22.67,22.67,0,0,0,2.33.55c1.74.29,2.68-.08,2.84-1.07A1.63,1.63,0,0,0,559.52,778.58Zm-.65,0-.45-.39a10.93,10.93,0,0,0-2.5-1l-1.29-.34-1.23-.33c-.17,2-.25,3-.23,3a.33.33,0,0,1-.21-.36.81.81,0,0,1,.05-.19.63.63,0,0,0,0-.2c.05-.78.07-1.65.06-2.61,1.68.41,2.79.72,3.35.92a5.52,5.52,0,0,1,2.82,1.73C559.21,778.78,559.07,778.73,558.87,778.57Zm5.28,14.09h-.06a5.44,5.44,0,0,1-2.94-3c0,.05-.46-1.36-1.47-4.22,0-.07-.13-.26-.31-.59a1.11,1.11,0,0,1-.17-.56,4.51,4.51,0,0,0,3.24-.56,3.24,3.24,0,0,0,1.43-2.68,8,8,0,0,0,0-1.32,2.21,2.21,0,0,1,.25,1.52A3.47,3.47,0,0,1,562.7,784a3.78,3.78,0,0,1-3.09.6c.06.17.29.94.71,2.27a22.44,22.44,0,0,0,.8,2.2,6.34,6.34,0,0,0,3,3.33.29.29,0,0,0,0,.13.19.19,0,0,1,0,.13Zm.31,1a8.52,8.52,0,0,0,0,1.31c-.1,0-.16.06-.17.14a.33.33,0,0,0,0,.12.5.5,0,0,1,0,.15,11.54,11.54,0,0,1-2.84-1.1,4.36,4.36,0,0,1,1.29.32,5.12,5.12,0,0,0,1.43.44,3.32,3.32,0,0,0,.09-1.07,5.77,5.77,0,0,1,.11-1.44A1.86,1.86,0,0,1,564.47,793.66Z"/><path class="cls-3" d="M581,785.7c-.33.12-.61.23-.83.29a8.61,8.61,0,0,1-1.72.41,1.43,1.43,0,0,1-.06-.66,1.45,1.45,0,0,0-.1-.73,7.79,7.79,0,0,0-2.75-2.24,5.48,5.48,0,0,0-4.12-.57,4.47,4.47,0,0,0-1.13.53c-.83.61-1.28,1.78-1.34,3.53a8.52,8.52,0,0,0,1.58,5,9,9,0,0,0,1.37,1.47,10.66,10.66,0,0,0,.94.61,7.4,7.4,0,0,0,1.6.72,10.59,10.59,0,0,0,1.09.24,3.7,3.7,0,0,0,1.28-.06,2.76,2.76,0,0,0,1.21-.42,3.94,3.94,0,0,0,1.71-3.32q-.72-.18-2.59-.76c-1.16-.36-2-.6-2.47-.72,0,0,0-.7-.09-2.13l4.3,1.16c2.1.57,3.56.94,4.38,1.13a9.38,9.38,0,0,1-1.53,6.15c-1,1.61-3.16,2.38-6.47,2a8.64,8.64,0,0,1-3-1,11.54,11.54,0,0,1-3.42-2.66,20.33,20.33,0,0,1-1.56-2,12,12,0,0,1-1.48-2.86,8.83,8.83,0,0,1-.42-2,16.28,16.28,0,0,1-.06-1.93,6.47,6.47,0,0,1,2.74-5.07,7.68,7.68,0,0,1,2.36-1.07c1.5-.37,3.37,0,5.63,1a13.84,13.84,0,0,1,2.09,1.24,8.78,8.78,0,0,1,1.73,1.51,10.73,10.73,0,0,1,1.91,3Zm-3.77-1.22a8,8,0,0,0-.63-.57,7.45,7.45,0,0,0-3.55-1.29A4.49,4.49,0,0,0,571,783a3.83,3.83,0,0,0-1.35,1.93,3.64,3.64,0,0,0-.1,1.32c.07,1,.13,1.65.18,1.91.28,1.33.49,2,.6,2-.21-.06-.44-.51-.71-1.33a8.28,8.28,0,0,1-.41-2.61,4.85,4.85,0,0,1,.47-2.3,2.5,2.5,0,0,1,.63-.73,4,4,0,0,1,1.6-.84,4.93,4.93,0,0,1,2.14.12,8.06,8.06,0,0,1,2.1.84,5.28,5.28,0,0,1,1.77,1.5A1.15,1.15,0,0,1,577.27,784.48Zm6.72,7.31c0,.06,0,.25-.1.57a7.73,7.73,0,0,1-.42,1.39c-.27.7-.43,1.11-.47,1.22a7.39,7.39,0,0,1-2.34,2.55c-1.08.66-2.83.87-5.27.57l-.17,0h-.16a.17.17,0,0,1-.15-.21c0-.07.16-.1.44-.07l.32,0,.24,0a9.61,9.61,0,0,0,3.9-.32,4.77,4.77,0,0,0,2.56-2.13,9.11,9.11,0,0,0,1.33-3.37,5.08,5.08,0,0,0,.08-.73C583.94,791.38,584,791.54,584,791.79Zm-4.66-.83-.18-.07-.22-.1c-.35-.12-1.07-.28-2.07-.51a16.75,16.75,0,0,1-2.06-.57s0,0,0-.09,0-.09,0-.11,0-.11.08-.09q.75.28,2.08.63l2,.53.21,0,.17,0a.46.46,0,0,1,.27.25A.3.3,0,0,1,579.34,791Z"/><path class="cls-3" d="M594.14,784.5c-.16.1-.24.19-.26.27a4.66,4.66,0,0,0,.52,2.22q.4,1,1.21,3.25c.5,1.38.9,2.44,1.19,3.17,1,2.5,1.53,4,1.67,4.34a23.73,23.73,0,0,0,1.78,4.22c.42.62.62.89.63.84a.4.4,0,0,1-.21,0,1.1,1.1,0,0,0-.3,0c-.58-.13-1.44-.28-2.57-.48s-1.81-.34-2.35-.48c0-.15.13-.34.38-.56a3.6,3.6,0,0,1,.08-.65,1.55,1.55,0,0,0,0-.67,5.89,5.89,0,0,0-1.11-2.64c-1.15-.84-3.74-.81-4.2-.88a8.2,8.2,0,0,0-.71,3.37,1.74,1.74,0,0,0,.28.5.53.53,0,0,1,.13.44,38.12,38.12,0,0,1-5.29-1.16c0-.09.1-.21.34-.37a1.9,1.9,0,0,1,.43-.25,33.9,33.9,0,0,0,1.49-3.74,35.26,35.26,0,0,0,1-3.39c.05-.24.27-1.1.66-2.57q.4-1.54.65-2.61c0-.1.08-.32.17-.64a6.08,6.08,0,0,0,.18-.72,2.45,2.45,0,0,0-.12-1.5,1.52,1.52,0,0,0-.27-.39,2.48,2.48,0,0,1-.29-.38q.05-.13.67,0l1.95.5c.79.21,1.44.35,2,.44h.34a.43.43,0,0,1,.31.16S594.34,784.37,594.14,784.5Zm-.27,13.39-1.4-.27c-.57-.12-1-.2-1.34-.23a5.24,5.24,0,0,0-.53,2.48,3.33,3.33,0,0,0,.46,1,1.5,1.5,0,0,1,.31.9,14.77,14.77,0,0,1-2.24-.35l-2.51-.52-.21,0-.2,0a.58.58,0,0,1-.36-.21.27.27,0,0,1,.32-.23,2.41,2.41,0,0,0,.51.16,20.93,20.93,0,0,0,2.22.46c1.1.18,1.8.3,2.09.36a5,5,0,0,0-.43-.82,2.6,2.6,0,0,1-.37-.91,3,3,0,0,1,.2-1.49l.27-.65a4.49,4.49,0,0,0,.23-.62c.32.09.76.19,1.31.3l1.31.26.3,0,.31,0a.64.64,0,0,1,.47.34A1.36,1.36,0,0,1,593.88,797.89Zm-1.22-3a12.42,12.42,0,0,0,1.29.22c-1-2.21-1.52-3.38-1.6-3.52-.1.3-.28.8-.55,1.49s-.43,1.14-.54,1.52Zm-.45-1.33a1.49,1.49,0,0,0-.11.28l-.09.29a.63.63,0,0,1-.36.38.26.26,0,0,0-.12-.14,10.3,10.3,0,0,1,.86-2,.59.59,0,0,1,.22.11A10.29,10.29,0,0,1,592.21,793.55ZM595,785a2,2,0,0,0-.18.39,2.26,2.26,0,0,0,.09.92c.15.59,1,3.07,2.65,7.49q.38,1.06,1.46,3.78a40.64,40.64,0,0,0,1.65,3.8,8.88,8.88,0,0,0,.64,1.06l.29.31a3.78,3.78,0,0,1,.31.35q.31.42,0,.61a26.57,26.57,0,0,1-4.33-.6,6.36,6.36,0,0,1-1.29-.34c.08-.13.24-.17.46-.16l.3.05.3.07c2.8.48,4.27.7,4.36.72s-.27-.25-.83-1q-.11-.15-.66-1.29l-.35-.65a6.86,6.86,0,0,1-.31-.62c-.16-.4-.38-1-.65-1.78s-.5-1.45-.66-1.85c-.87-2.17-1.33-3.36-1.4-3.56s-.31-.78-.69-1.75c-.29-.74-.52-1.35-.68-1.84-.36-1.09-.56-1.69-.61-1.83a8.38,8.38,0,0,1-.48-1.52,1.16,1.16,0,0,1,.31-1.15.28.28,0,0,0,.17,0,.25.25,0,0,1,.18,0A.54.54,0,0,1,595,785Z"/><path class="cls-3" d="M611.94,794.18a32.06,32.06,0,0,0-.25-4.08,5.25,5.25,0,0,0-.78-2.33c-.49-.55-.74-.79-.75-.71,0-.14.42-.15,1.19-.06l.89.13.58.08c.44,0,1.05.1,1.78.21s1.41.2,1.67.23c0,.09-.22.34-.45.71a9,9,0,0,0-.23,3.32c0,1.16.11,2.56.2,4.22.12,2,.19,3.47.21,4.25a12.77,12.77,0,0,0,.47,3.78c.32.67.51,1,.56.92a14.15,14.15,0,0,1-1.44-.09c-2.13-.19-3.14-.31-3.05-.31s-.45-1-1.41-3.15c-.52-1.16-1.27-2.73-2.26-4.68q-1.73-3.4-2.32-4.63c.07,3.46.19,6.43.4,8.82a4.53,4.53,0,0,0,.91,2.45l.11.11.14.13a.29.29,0,0,1,.08.32c0,.09,0,.12-.14.08s-.25-.09-.2-.09l-1.77-.22c-.95-.11-1.62-.2-2-.26l-1.68-.29a11.82,11.82,0,0,0,.92-1.41,16.27,16.27,0,0,0-.14-3.53c-.06-.62-.16-2-.31-4.22,0-.5-.1-1.83-.19-4,0-1.07-.09-1.72-.12-2a3.38,3.38,0,0,0-.61-1.66,5.56,5.56,0,0,0-.51-.61c0-.11.11-.16.28-.14a2.1,2.1,0,0,0,.47,0c-.05,0,.94.2,3,.6l.94.18a10,10,0,0,1,.77,1.46c.56,1.15,1.43,2.93,2.59,5.35s2,4.2,2.54,5.3C612,796.12,612,794.7,611.94,794.18Zm-4.66.09a1.61,1.61,0,0,0,0,.35c0,.23,0,.58,0,1s0,.88,0,1.09a25.14,25.14,0,0,0,.45,4.71,5.07,5.07,0,0,0,1,2.18,1,1,0,0,0,.23.2,1.56,1.56,0,0,1,.28.23.07.07,0,0,1,0,.06.1.1,0,0,0,0,.09l.08.07.08.07a.15.15,0,0,1,0,.17c0,.1-.18.16-.41.14l-.36,0-.4,0c-.63-.07-2.07-.22-4.26-.54l-.21,0-.2,0a.48.48,0,0,1-.34-.19c0-.12.19-.16.43-.15l.34,0,.34,0c.4,0,1.17.14,2.29.31s1.85.24,2.33.27c0,0-.18-.25-.5-.66s-.44-.55-.53-.65a10.15,10.15,0,0,1-.86-4.28c-.11-3-.15-4.52-.16-4.71s0-.11.11-.09A.41.41,0,0,1,607.28,794.28Zm4.2,2.29a1.31,1.31,0,0,1-.06-.18l0-.16s-.71-1.45-2.14-4.37q-.8-1.65-1.22-2.45a25.1,25.1,0,0,1-1.17-2.47s0,0,0,0a.16.16,0,0,1,.07,0H607a1.31,1.31,0,0,1,.38.57l.17.39.15.33c.13.25.4.77.82,1.54.33.61.6,1.12.79,1.56.9,2,1.62,3.57,2.16,4.71a.8.8,0,0,0,.1.21,1.66,1.66,0,0,1,.13.22.39.39,0,0,1,0,.44A.37.37,0,0,1,611.48,796.57Zm5.27-8.16c-.12.17-.18.25-.17.23a8.37,8.37,0,0,0-.14,3c0,.34,0,.79.06,1.35,0,.78,0,1.24,0,1.35.05,1.72.13,4,.21,6.73a18,18,0,0,0,.39,2.57,8.12,8.12,0,0,0,.53,1,5.39,5.39,0,0,1,.47,1,9.53,9.53,0,0,1-2.39-.11l-2.58-.35c-.06-.2,0-.28.24-.3a1.27,1.27,0,0,1,.29,0l.26,0c.35,0,.93.09,1.74.19s1.55.19,2,.22a6,6,0,0,1-1.16-3.27,9.36,9.36,0,0,1,0-1.15c0-.52,0-.87,0-1-.09-1.18-.23-4-.4-8.27a6.17,6.17,0,0,1,.46-3.38.28.28,0,0,1,.31-.08S616.81,788.3,616.75,788.41Z"/><path class="cls-3" d="M623.36,805.31l-3.18-.21a9.3,9.3,0,0,1-1.51-.18c0-.09,0-.18.15-.27a.45.45,0,0,0,.21-.29,1.64,1.64,0,0,0,.75-1.33s0-.59,0-1.9c0-.65-.12-2.93-.46-6.65,0-.26,0-.72-.06-1.37s0-1.24-.07-1.6a8.17,8.17,0,0,0-.64-3,4.33,4.33,0,0,0-.62-.72.68.68,0,0,1,.54-.14l.35,0,.35,0c1.63.13,2.45.19,4.12.29h.43a.28.28,0,0,1,.23.16q0-.08-.41.47c-.41.58-.51,2.1-.32,4.61q.06.84.12,3.2c0,1.44.08,2.61.16,3.43,0,.18.06.61.1,1.28,0,.49.06.9.11,1.19a5.51,5.51,0,0,0,.65,2.07,3.78,3.78,0,0,0,.32.38,1,1,0,0,1,.24.46A5.33,5.33,0,0,1,623.36,805.31Zm2.64.44a1.51,1.51,0,0,0-.05.29c.13,0-1.83-.06-5.73-.31h-.32a.34.34,0,0,1-.29-.16c0-.16.17-.22.41-.19l.32.06.28.06c.47.06,1.3.11,2.5.13a25.26,25.26,0,0,1,2.56.14,3.56,3.56,0,0,0-.58-1,6.25,6.25,0,0,1-.65-1,5.53,5.53,0,0,1-.45-2.43s0-.06-.1-.08a.09.09,0,0,1-.07-.1c0-.25,0-1.53-.13-3.62-.06-1.55-.1-2.82-.11-3.79,0-2.39,0-3.62,0-3.7a2.67,2.67,0,0,1,.48-1.44c.27,0,.37,0,.31.23a1.31,1.31,0,0,1-.11.26l-.11.22a6.88,6.88,0,0,0-.27,2.71c.2,5.16.33,8.52.46,9.84a5,5,0,0,0,1.76,3.54C626.07,805.52,626,805.62,626,805.75Z"/><path class="cls-3" d="M641.35,793.38a.46.46,0,0,1-.11-.27,3.43,3.43,0,0,1-.56-.39,2.77,2.77,0,0,0-.61-.39,8.71,8.71,0,0,0-3-.68,7.24,7.24,0,0,0-3.13.42A7.1,7.1,0,0,0,631,794.2a3.66,3.66,0,0,0-.58,1.51,5.13,5.13,0,0,0-.07,1.71,6.78,6.78,0,0,0,.39,1.64,5.77,5.77,0,0,0,2.93,2.77,8.48,8.48,0,0,0,4.07.79,5.55,5.55,0,0,0,4-2,1.44,1.44,0,0,0,.2-.74c0-.6,0-.88,0-.84a16.15,16.15,0,0,1,2.33,1q1.34.67,2.19,1c0,.34-.81,1.13-2.32,2.35a11.31,11.31,0,0,1-7.17,2.27,13.6,13.6,0,0,1-3.23-.56,12.1,12.1,0,0,1-4.51-2.51,10.66,10.66,0,0,1-2.26-2.79,5.69,5.69,0,0,1-.62-2.27,7.36,7.36,0,0,1,1-4.64,8.35,8.35,0,0,1,3.36-3,12,12,0,0,1,5.59-1.48c.36,0,1.06.06,2.09.16a11.74,11.74,0,0,1,3.9,1.07,13.19,13.19,0,0,1,2.79,1.74c.61.51.89.83.86,1a8.61,8.61,0,0,1-1.13.57l-1.08.54c-.4.2-.78.37-1.14.54l-.25.14-.31.18a.76.76,0,0,1-.58.11c-.13-.06-.17-.18-.1-.34a1.06,1.06,0,0,0,.13-.48A1.51,1.51,0,0,0,641.35,793.38Zm-1.26-.38-.12-.12a.54.54,0,0,0-.16-.09,5.28,5.28,0,0,0-2.23-.58,8.32,8.32,0,0,0-4.47,1,5.82,5.82,0,0,0-1.52,1.58,13.16,13.16,0,0,0-.41,1.25,3.8,3.8,0,0,0-.08,1.75,3.86,3.86,0,0,0,.48,1.44,3.21,3.21,0,0,0,.47.66c-.46,0-.84-.35-1.16-1.15a2.59,2.59,0,0,0-.05-.27,4.76,4.76,0,0,1-.1-.53,5.89,5.89,0,0,1-.06-1.58,4.38,4.38,0,0,1,2.59-3.63,9.93,9.93,0,0,1,4.13-.73,5.25,5.25,0,0,1,1,.16l1,.21.67.29c.27.12.4.26.41.4A.34.34,0,0,1,640.09,793Zm.52,12.85h-.35a11.47,11.47,0,0,1-4.77.27,2.59,2.59,0,0,1-1.19-.38,2.41,2.41,0,0,1,.84,0,15,15,0,0,0,2.66.19,13,13,0,0,0,7.16-2.69,8,8,0,0,0,1.29-1.17l.37-.42a.21.21,0,0,0,0-.06s0,0,0,0,.23,0,.35.1C645.92,803.14,643.76,804.56,640.61,805.85Zm4.61-12.46c-.59.29-1.28.6-2,.93l-.25.13-.26.13a.85.85,0,0,1-.55.06s0-.06,0-.07a4.66,4.66,0,0,1,.89-.43l1-.38a17.82,17.82,0,0,0,1.86-1H646c.07,0,.11,0,.09.09A3.46,3.46,0,0,1,645.23,793.39Z"/><path class="cls-3" d="M518.33,768a5,5,0,0,1,.37,1.82,2.47,2.47,0,0,1-3.63,2.44l-.37-.17a4.44,4.44,0,0,0,.86.47,2.3,2.3,0,0,0,3.39-2.28A5,5,0,0,0,518.33,768Z"/><path class="cls-3" d="M515.07,765c-1.73-.71-3.14.18-3.14,2a5.4,5.4,0,0,0,3.14,4.64,2.13,2.13,0,0,0,3.14-2.11A5.37,5.37,0,0,0,515.07,765Z"/><path class="cls-3" d="M474.28,781.93c-.36.15-.67.27-.91.35a8.83,8.83,0,0,1-1.88.48,2,2,0,0,1,0-.82,2,2,0,0,0-.08-.91,8.39,8.39,0,0,0-2.91-2.78,5.05,5.05,0,0,0-4.44-.6,4.81,4.81,0,0,0-1.23.71c-.91.79-1.4,2.26-1.5,4.34a10.08,10.08,0,0,0,1.58,5.81,9.6,9.6,0,0,0,1.42,1.64,11.36,11.36,0,0,0,1,.68,7.82,7.82,0,0,0,1.68.82,11.39,11.39,0,0,0,1.15.29,3.87,3.87,0,0,0,1.37,0,2.85,2.85,0,0,0,1.3-.43,4.57,4.57,0,0,0,1.94-3.75c-.51-.16-1.44-.48-2.77-.94s-2.12-.72-2.64-.87c0,0,0-.82,0-2.53,1,.29,2.55.76,4.61,1.42,2.25.72,3.82,1.23,4.7,1.49a11.19,11.19,0,0,1-1.89,7c-1.16,1.73-3.46,2.39-7,1.88a9.55,9.55,0,0,1-3.12-1.19,12.19,12.19,0,0,1-3.55-2.88,20.69,20.69,0,0,1-1.6-2.2A12.9,12.9,0,0,1,458,785.8a10.68,10.68,0,0,1-.42-2.32,21.3,21.3,0,0,1,0-2.27,9.19,9.19,0,0,1,3-6.42,8.31,8.31,0,0,1,2.56-1.51q2.44-.85,6.09,1a13.52,13.52,0,0,1,2.24,1.57,9.7,9.7,0,0,1,1.84,1.93,13.73,13.73,0,0,1,2,3.77Zm-4.06-1.55a8.68,8.68,0,0,0-.67-.71,6.94,6.94,0,0,0-3.81-1.55,4.71,4.71,0,0,0-2.28.59,4.92,4.92,0,0,0-1.49,2.42,5,5,0,0,0-.13,1.59c.06,1.19.1,1.94.16,2.25.28,1.55.48,2.29.6,2.29-.22-.06-.46-.57-.73-1.52a10.44,10.44,0,0,1-.39-3,6.77,6.77,0,0,1,.55-2.79,3.24,3.24,0,0,1,.69-.92,4.36,4.36,0,0,1,1.74-1.1,4.48,4.48,0,0,1,2.31.09,7.53,7.53,0,0,1,2.26,1,5.75,5.75,0,0,1,1.88,1.86A1.18,1.18,0,0,1,470.22,780.37Zm7,9c0,.07-.05.29-.13.65a9,9,0,0,1-.51,1.57c-.32.78-.5,1.23-.55,1.35a7.5,7.5,0,0,1-2.6,2.66q-1.76,1-5.61.33l-.18,0-.17,0c-.13,0-.17-.12-.16-.22s.17-.1.47-.05l.34.06.25.06a10.46,10.46,0,0,0,4.15-.13,4.88,4.88,0,0,0,2.81-2.18,10.27,10.27,0,0,0,1.57-3.76,6.4,6.4,0,0,0,.12-.85Q477.27,788.93,477.23,789.37Zm-5-1.17-.2-.09-.23-.12c-.37-.15-1.14-.36-2.21-.64a17.77,17.77,0,0,1-2.19-.68s0-.06,0-.1,0-.1,0-.12,0-.12.09-.11q.8.33,2.22.75l2.18.66.22.05.18,0a.51.51,0,0,1,.29.3A.3.3,0,0,1,472.23,788.21Z"/><path class="cls-3" d="M490.95,782.1a14,14,0,0,1,3.78,4.36q3,5,2.24,9.47a9.81,9.81,0,0,1-1.07,2.74,5.66,5.66,0,0,1-4.92,3.12,7.44,7.44,0,0,1-3-.37,14.26,14.26,0,0,1-4.35-2.31,14.6,14.6,0,0,1-3.35-3.63,14.88,14.88,0,0,1-1.84-3.82,12.18,12.18,0,0,1-.46-4.46,8.31,8.31,0,0,1,1.11-3.76,9.86,9.86,0,0,1,1.93-2.31q2.25-1.91,6.13-.93A12.9,12.9,0,0,1,490.95,782.1Zm1.77,8.4a10.89,10.89,0,0,0-2.07-4,6.64,6.64,0,0,0-3.71-2.37,3.65,3.65,0,0,0-3.28.93,5.29,5.29,0,0,0-1.79,3.16,9.24,9.24,0,0,0,.81,4.81c1.82,2.68,3.46,4.21,4.91,4.7a3.85,3.85,0,0,0,3.41-.3,4.41,4.41,0,0,0,1.93-3c0-.27,0-.81.05-1.62a6.87,6.87,0,0,0-.11-1.76A3.15,3.15,0,0,1,492.72,790.5Zm-4.79-5.31a5.18,5.18,0,0,0-.87-.25,4.89,4.89,0,0,0-2.27.41,3.45,3.45,0,0,0-1.78,1.79,6.31,6.31,0,0,0-.46,3.31,15,15,0,0,0,1,3.07c-.28,0-.58-.46-.9-1.34a7.79,7.79,0,0,1-.48-1.8,7,7,0,0,1,.47-3.48,3.77,3.77,0,0,1,2.1-2,4.63,4.63,0,0,1,3.18-.21,1.56,1.56,0,0,1,.91.52A1.46,1.46,0,0,1,487.93,785.19Zm-1.5,16,.37.15.34.16c3,1.2,5.48,1.07,7.5-.48s2.9-3.87,2.81-7.18a13.43,13.43,0,0,0-.46-3.06,9.46,9.46,0,0,0-1.13-2.75.12.12,0,0,1,0-.1.14.14,0,0,0,0-.08c.1-.06.17,0,.18.06a10.34,10.34,0,0,1,1.29,3.26,12.91,12.91,0,0,1,.37,3.74c-.21,3.41-1.45,5.66-3.69,6.89s-5.11,1.06-8.34-.62A.89.89,0,0,1,486.43,801.15Z"/><path class="cls-3" d="M511.67,789.41a14,14,0,0,1,3.79,4.22q3,4.8,2.24,9.07a9.11,9.11,0,0,1-1.07,2.62,5.62,5.62,0,0,1-4.92,3,7.63,7.63,0,0,1-3-.39,14.54,14.54,0,0,1-4.35-2.31,15.43,15.43,0,0,1-5.19-7.33,11.44,11.44,0,0,1-.46-4.31,7.54,7.54,0,0,1,1.11-3.58,9.05,9.05,0,0,1,1.93-2.15c1.5-1.17,3.54-1.41,6.13-.71A13.68,13.68,0,0,1,511.67,789.41Zm1.78,8a10.47,10.47,0,0,0-2.07-3.85,6.9,6.9,0,0,0-3.71-2.34,3.71,3.71,0,0,0-3.27.81,4.86,4.86,0,0,0-1.79,3,8.68,8.68,0,0,0,.81,4.64c1.82,2.63,3.46,4.14,4.91,4.63a3.94,3.94,0,0,0,3.41-.24,4.17,4.17,0,0,0,1.93-2.89c0-.26,0-.78.05-1.55a6.29,6.29,0,0,0-.11-1.69A3.14,3.14,0,0,1,513.45,797.45Zm-4.79-5.17a5.53,5.53,0,0,0-.87-.26,5.05,5.05,0,0,0-2.27.34,3.25,3.25,0,0,0-1.77,1.67,5.78,5.78,0,0,0-.46,3.17,14.29,14.29,0,0,0,1,3c-.28,0-.58-.46-.9-1.31a7.45,7.45,0,0,1-.48-1.74,6.41,6.41,0,0,1,.47-3.32,3.57,3.57,0,0,1,2.1-1.82,4.83,4.83,0,0,1,3.18-.12,1.63,1.63,0,0,1,.91.52A1.53,1.53,0,0,1,508.66,792.28Zm-1.5,15.33.37.15.34.16c3,1.21,5.48,1.1,7.5-.38s2.9-3.72,2.81-6.88a12.33,12.33,0,0,0-.46-2.93,8.93,8.93,0,0,0-1.13-2.64.11.11,0,0,1,0-.1.11.11,0,0,0,0-.07c.11-.06.17,0,.18.06a9.73,9.73,0,0,1,1.29,3.13,11.88,11.88,0,0,1,.37,3.58c-.2,3.26-1.45,5.43-3.69,6.6s-5.11,1-8.34-.7A.91.91,0,0,1,507.16,807.61Z"/><path class="cls-3" d="M533.48,800.39l-.34-.15a3.88,3.88,0,0,0-.56-.22,2.81,2.81,0,0,0-.35-1c-.49-.48-3.68-1.23-7.82-2.53,0,.66,0,1.57,0,2.72s0,2.22,0,2.86a3.41,3.41,0,0,0,1.66.6.74.74,0,0,0,.84-.8,1.2,1.2,0,0,0,.48.18.65.65,0,0,1,.4.23,15,15,0,0,0-.1,1.93,19.59,19.59,0,0,1-.08,2,.65.65,0,0,1-.86-.2,3.1,3.1,0,0,1-.33-.44c-.16-.26-.26-.42-.29-.44a6.59,6.59,0,0,0-.93-.29l-.8-.25c-.06.61-.1,2.32-.12,5,.87.38,2.85,1,5.93,1.95l1.73.52q.79.12.93-.54a6.51,6.51,0,0,1,1,.49c-.07.19-.32.73-.73,1.6a6.69,6.69,0,0,0-.57,1.63,58.71,58.71,0,0,1-6.21-1.83c-.79-.27-2-.64-3.54-1.12l-3.26-1a1.23,1.23,0,0,1,.35-.65,3.81,3.81,0,0,0,.82-2.24c.23-4.46.27-8.78.12-12.72a7.74,7.74,0,0,0-.23-1.74,5.41,5.41,0,0,0-.57-1.2,4.93,4.93,0,0,1-.55-1.12c5.63,2,9.72,3.4,12.25,4.18a1.91,1.91,0,0,1,.82.4,9.74,9.74,0,0,1,.65,2.09c.31,1.24.49,2,.54,2.23Zm.87,12a.49.49,0,0,1,.05.5,2.47,2.47,0,0,1-.12.24l-.12.22a22.27,22.27,0,0,1-1.3,2.68s-3.78-1.14-11.3-3.5l-.22,0-.28-.07a.73.73,0,0,1-.44-.34,6.69,6.69,0,0,1,2.26.58l2.53.94c.84.26,2,.6,3.52,1l3.69,1.05a8,8,0,0,0,.85-1.58c.4-.94.65-1.52.76-1.73Zm-8.68-6.7-.25-.09-.31-.09a1.92,1.92,0,0,0-.05.63c0,.39,0,.62,0,.68s0,.55,0,1.55c0,.59-.08.93-.26,1a10.18,10.18,0,0,1-.08-2.09c0-1.13,0-1.89,0-2.23a2.76,2.76,0,0,0,.77.18.5.5,0,0,1,.47.34C525.95,805.73,525.84,805.76,525.67,805.72Zm6.25-6.29a1.18,1.18,0,0,0,.77,1l1.17.54c-.13.1-.4.07-.8-.08l-1-.39a1.28,1.28,0,0,0-.12-.38,2.75,2.75,0,0,1-.18-.46c-3-1-6.34-2.32-6.51-2.21a16.56,16.56,0,0,0-.12,3,3.49,3.49,0,0,0,0,.39c0,.18,0,.32,0,.4q0,.44-.23.53a11.16,11.16,0,0,1-.13-2.5c.05-1.48.07-2.27.06-2.36C526.67,797.64,529,798.47,531.92,799.43Zm-3.61,3.18a28.07,28.07,0,0,1-.12,4.63,2,2,0,0,0-.76-.2c-.27,0-.43-.11-.48-.25s.14-.17.39-.08a1.12,1.12,0,0,0,.55.12,15.6,15.6,0,0,0,.14-2.06c0-1.05.05-1.8.11-2.22Z"/><path class="cls-3" d="M550.23,802.23a.83.83,0,0,0-.31.07,5.22,5.22,0,0,0-.86,1c-.07.1-.21.26-.42.48s-.32.37-.41.48c-.91,1.37-1.41,2.09-1.49,2.17a7.56,7.56,0,0,1-1,1.74,7.44,7.44,0,0,0-1.07,1.62c-.11.51,0,1.65,0,2.85s-.05,2.24,0,2.77c0,.27,0,.65.07,1.14s0,.9.05,1.13a2.64,2.64,0,0,0,.82,1.07c0,.15-.09.22-.25.19l-.42-.12a42.78,42.78,0,0,0-4.53-1.27.66.66,0,0,1-.16-.46c.36,0,.61-.27.74-.73a4.84,4.84,0,0,0,0-1.43c0-.55.09-1.56.08-2.78,0-1.71,0-2.81,0-3.27a.41.41,0,0,0-.12-.15.35.35,0,0,1-.12-.15c-.12-.35-.59-1.48-1.41-3.43a52.58,52.58,0,0,0-3.6-7.25,1.35,1.35,0,0,1-.44-.34c-.14-.16-.22-.36-.18-.43s.3,0,.71.15c.56.2,1.45.48,2.61.84s1.87.61,2.48.83a.55.55,0,0,1-.2.28.94.94,0,0,0-.24.31c.15.63.9,2.69,2.26,6.12a22.94,22.94,0,0,0,1.29-2c.63-1.05.91-1.54.86-1.44a1.35,1.35,0,0,0-.24-1.88.2.2,0,0,1,0-.24.36.36,0,0,1,.2,0,.29.29,0,0,1,.17.09.91.91,0,0,0,.18.14c.09,0,.4.15.9.31,1.23.41,2.6.79,4.07,1.17a.79.79,0,0,0,.16.18.25.25,0,0,1,.08.24A.39.39,0,0,1,550.23,802.23Zm-.43,1.44q-.38.4-1.84,2.51-.29.42-.81,1.1t-.76,1a.8.8,0,0,0-.1.23,1,1,0,0,1-.09.23,5.67,5.67,0,0,1-.44.53,3.92,3.92,0,0,0-.42.53s0,.09,0,.16,0,.08,0,.09l-.08,3.31c0,1.86-.06,2.9,0,3.17a3.84,3.84,0,0,0,.55,1.84,3.21,3.21,0,0,0,.78.79,1.23,1.23,0,0,1,.06.31.5.5,0,0,0,.09.27.27.27,0,0,1-.24.12l-.39-.11-1-.29-1.08-.33c-.57-.18-1.1-.35-1.57-.49l-.39-.1-.4-.1A1.34,1.34,0,0,1,541,818s.08,0,.27-.19a43,43,0,0,0,4.92,1.57,2,2,0,0,0-.59-.7l-.3-.65c-.12-.26-.23-.48-.33-.64-.11-.71-.12-3.08,0-7.25a.69.69,0,0,1-.05-.45.27.27,0,0,1,.25-.21,21,21,0,0,1,1.49-2.14,12.47,12.47,0,0,0,1.41-2.16,9.39,9.39,0,0,1,2.9-3l.06,0,.05,0s.06,0,.08,0,.11.07.13.17a.44.44,0,0,1,0,.11s0,.07,0,.07A3.08,3.08,0,0,0,549.8,803.67ZM543.1,805l-.34-.09q-.1-.43-1.11-3a6.38,6.38,0,0,1-.56-3,.55.55,0,0,1,.47.15.18.18,0,0,0,0,.13s0,.12,0,.16-.08.09-.08.11a5.31,5.31,0,0,0,.29,1.74q.08.27.28.77t.29.79l.74,2.2Z"/><line class="cls-14" x1="434.86" y1="202.71" x2="334.2" y2="303.37"/><path class="cls-14" d="M465.87,191l-16.52,16.52a6.31,6.31,0,0,1-8.91-.24l-10.17-10.17a6.31,6.31,0,0,1-.24-8.91L452.26,166"/><rect class="cls-3" x="442.84" y="154.42" width="18.85" height="23.13" rx="6.16" ry="6.16" transform="translate(186.58 -235.89) rotate(36.38)"/><rect class="cls-3" x="453.61" y="182.3" width="18.85" height="23.13" rx="6.16" ry="6.16" transform="translate(366.96 -298.84) rotate(56.25)"/><line class="cls-14" x1="548.33" y1="164.43" x2="671.89" y2="287.99"/><path class="cls-14" d="M517,153l16.52,16.52a6.42,6.42,0,0,0,9.05-.38l10.48-10.48a6.42,6.42,0,0,0,.38-9.05l-22.24-22.24"/><path class="cls-3" d="M535.35,138.76l5.39-4A6.35,6.35,0,0,0,542.2,126l-6.37-8.73a6.21,6.21,0,0,0-8.73-1.2l-5.39,4a6.35,6.35,0,0,0-1.46,8.77l6.37,8.73A6.21,6.21,0,0,0,535.35,138.76Z"/><path class="cls-3" d="M527.64,165l3.76-5.56a6.19,6.19,0,0,0-1.6-8.65l-9-6a6.37,6.37,0,0,0-8.71,1.86l-3.76,5.56a6.19,6.19,0,0,0,1.6,8.65l9,6A6.37,6.37,0,0,0,527.64,165Z"/><path class="cls-3" d="M401.58,786.92a220.8,220.8,0,0,0-30.89-5.64c-1.18-.11-2.29-.21-3.39-.29Q383.78,784.29,401.58,786.92Z"/><path class="cls-3" d="M654.38,775.6c.14-2.13-3.66-5.52-14.28-10.82-18.33,3.9-38,7.23-58.9,9.69a203.46,203.46,0,0,0,42.87,8.74q15.77-2.87,30.39-6.27C654.44,776.49,654.42,776.05,654.38,775.6Z"/><path class="cls-3" d="M841.59,359c-13.05-9.33-41.16-27.7-82.78-45.84A592.28,592.28,0,0,0,677,284.62l-5-1.34-40.54,55.52,12.11,8.85L678,300.46a574.76,574.76,0,0,1,74.8,26.46c37.27,16.25,63.25,32.59,76.91,42.08V686.93c-13.66,9.49-39.65,25.83-76.91,42.08a580.21,580.21,0,0,1-87.52,29.86c4.11.81,8.53,1.85,13.42,3.18a124.49,124.49,0,0,0,17.84,3.61,581.17,581.17,0,0,0,62.26-22.9c41.61-18.14,69.72-36.5,82.78-45.84l3.14-2.24V361.25Z"/><path class="cls-3" d="M337.43,761.83s0-.09,0-.13q0-1.46.08-2.89A580,580,0,0,1,250.23,729C213,712.77,187,696.42,173.32,686.93V369c13.66-9.49,39.64-25.83,76.91-42.08A573.86,573.86,0,0,1,323.11,301l35.25,47.58,12.05-8.93L329,283.8l-5,1.36a591.5,591.5,0,0,0-79.85,28c-41.62,18.14-69.73,36.51-82.78,45.84l-3.14,2.24V694.68l3.14,2.24c13.06,9.33,41.17,27.7,82.78,45.84A583.11,583.11,0,0,0,309,766.41,140.43,140.43,0,0,1,337.43,761.83Z"/><path class="cls-3" d="M337.47,774.17q-.1-3.24-.11-6.34,0,3.14.11,6.43h0Z"/></g><g id="Fire"><path class="cls-3" d="M512.8,287.35a12.83,12.83,0,0,0,9.15-3.85,10.24,10.24,0,0,0-.2-14.48l-2.68-2.48c-2.63-2.56-6.58-8.14-6.63-11.95-.06-4.57,2-9.11,5.9-13.14a22.63,22.63,0,0,0-.44-32l-1.54-1.5a1.68,1.68,0,0,0-2.38,0h0a1.69,1.69,0,0,0,0,2.29,19.33,19.33,0,0,1-.7,26.2c-5.73,5.89-6.88,11.67-6.83,15.48a17.6,17.6,0,0,0,5.16,12.29l.1.09,5.07,4.35,0,0a6.94,6.94,0,0,1,.13,9.82,9.52,9.52,0,0,1-6.79,2.85,8.89,8.89,0,0,1-6.25-2.49c-8.05-7.83-10.09-21.6,2.16-34.19a32.33,32.33,0,0,0-.42-45.52,22.48,22.48,0,0,0-1.89-30.32l-2.75-2.67a1.65,1.65,0,1,0-2.3,2.36,19.2,19.2,0,0,1,1.46,26.1l-1.46,1.64c-9.22,9.82-7.65,21.18-1.24,27.42l2.75,2.67a1.65,1.65,0,0,0,2.3-2.36,14.28,14.28,0,0,1-4.21-10,17.94,17.94,0,0,1,4.71-11.84,29.15,29.15,0,0,1-3.32,36.34c-8.2,8.43-9.84,16.67-9.77,22.1a25,25,0,0,0,7.38,17.5l4.31,3.16,2.75,2.67c4.31,4.2,4.8,11.74.6,16.06a14.69,14.69,0,0,1-10.48,4.39,13.75,13.75,0,0,1-9.66-3.85,1.65,1.65,0,1,0-2.3,2.36l4,3.91a17,17,0,0,0,12,4.79h0a18,18,0,0,0,12.84-5.39,14.23,14.23,0,0,0,.85-18.86Z"/><path class="cls-3" d="M488.81,262.87c.06-4.89-1.41-12.32-8.8-19.92a25.87,25.87,0,0,1,.5-36.54,1.65,1.65,0,1,0-2.3-2.36l-3.6,3.5a29.13,29.13,0,0,0-.56,41.2c5.23,5.37,7.95,11.45,7.87,17.58a19.74,19.74,0,0,1-.29,3.13l-2.31-1.38a15.87,15.87,0,0,0-8.14-2.22,18.7,18.7,0,0,0-15.84,9.26c-6.26,10.48-3.35,23.79,6.5,29.68l3.76,2.25,1.69-2.83c-8.29-5-10.69-16.24-5.36-25.16a15.39,15.39,0,0,1,13-7.66,12.63,12.63,0,0,1,5.81,1.4,18.65,18.65,0,0,1-4.49,7,1.65,1.65,0,1,0,2.3,2.36l3.6-3.5A22.54,22.54,0,0,0,488.81,262.87Z"/><path class="cls-3" d="M546.34,278.22a20.06,20.06,0,0,0-11.51-11.3l-4.1-1.54a1.65,1.65,0,0,0-1.16,3.09,16.8,16.8,0,0,1,9.63,9.47,19.45,19.45,0,0,1,.13,14.33c-2.23,5.92-7.89,10.06-13.76,10.06a12.3,12.3,0,0,1-4.35-.79,1.65,1.65,0,0,0-1.16,3.09l4.1,1.54a15.58,15.58,0,0,0,5.51,1c7.33,0,14.1-4.9,16.84-12.2A22.72,22.72,0,0,0,546.34,278.22Z"/></g></svg>