<?xml version="1.0" standalone="no"?>
<!DOCTYPE svg PUBLIC "-//W3C//DTD SVG 20010904//EN"
 "http://www.w3.org/TR/2001/REC-SVG-20010904/DTD/svg10.dtd">
<svg version="1.0" xmlns="http://www.w3.org/2000/svg"
 width="2085.000000pt" height="2085.000000pt" viewBox="0 0 2085.000000 2085.000000"
 preserveAspectRatio="xMidYMid meet">
<metadata>
Created by potrace 1.11, written by Peter Selinger 2001-2013
</metadata>
<g transform="translate(0.000000,2085.000000) scale(0.100000,-0.100000)"
fill="#000000" stroke="none">
<path d="M10020 20834 c-566 -31 -859 -61 -1310 -135 -2127 -348 -4111 -1370
-5650 -2909 -1630 -1630 -2674 -3751 -2964 -6020 -63 -489 -80 -785 -81 -1340
0 -483 7 -645 46 -1039 124 -1279 471 -2475 1054 -3642 97 -192 119 -229 129
-218 23 25 5811 8293 5810 8298 -1 3 -64 50 -140 103 -77 53 -164 121 -195
150 -198 187 -255 494 -135 728 18 36 209 316 424 623 216 307 392 561 392
565 0 4 -45 30 -100 57 -120 59 -150 87 -157 147 -5 41 14 81 314 688 274 552
324 648 350 663 68 38 77 34 605 -228 271 -135 503 -255 515 -267 30 -28 44
-79 32 -120 -5 -18 -148 -312 -317 -653 -219 -440 -317 -627 -336 -643 -63
-49 -77 -45 -327 79 -126 62 -230 111 -232 108 -23 -26 -814 -1163 -828 -1189
-42 -77 -17 -207 52 -278 33 -33 863 -618 919 -647 20 -10 65 -20 105 -23 62
-3 76 -1 124 25 51 26 65 44 232 282 l178 254 -182 188 c-124 129 -186 201
-195 227 -28 77 -36 68 519 598 281 269 521 494 533 501 31 18 97 15 127 -5
14 -9 197 -197 407 -416 404 -423 403 -421 388 -500 -5 -28 -73 -97 -424 -433
-229 -219 -465 -444 -523 -500 -153 -144 -180 -145 -310 -16 l-76 75 -149
-213 c-82 -118 -176 -241 -209 -274 -138 -138 -351 -200 -550 -161 -109 22
-199 67 -362 182 -76 53 -143 97 -149 98 -7 1 -1345 -1901 -2974 -4227 l-2962
-4227 78 -128 c865 -1419 2054 -2615 3454 -3474 1502 -922 3150 -1433 4925
-1528 243 -13 815 -13 1060 0 1741 92 3356 585 4845 1478 945 566 1805 1296
2551 2163 77 90 147 173 155 185 13 20 -196 443 -3016 6090 -1666 3337 -3031
6072 -3033 6077 -1 5 -90 -35 -197 -87 -214 -106 -280 -126 -416 -126 -187 0
-365 82 -481 222 -27 32 -95 154 -174 310 l-129 257 -37 -13 c-132 -46 -298
-16 -415 76 -37 29 -519 636 -570 718 -15 25 -36 80 -45 123 -14 67 -15 89 -5
147 16 94 52 170 109 231 41 44 408 333 484 381 93 59 251 75 370 39 119 -37
150 -68 434 -430 143 -182 272 -354 287 -383 40 -77 54 -172 39 -256 -26 -139
-77 -214 -226 -328 -57 -43 -104 -85 -105 -92 0 -24 250 -511 282 -548 48 -54
98 -74 190 -74 l77 0 513 256 c362 181 524 267 551 292 58 55 87 119 87 192 0
59 -6 72 -325 710 -179 358 -328 650 -332 650 -3 0 -55 -16 -114 -35 -84 -27
-125 -35 -183 -35 -168 0 -319 89 -391 230 -10 19 -76 216 -147 438 -116 365
-128 410 -128 477 0 165 81 306 224 390 25 15 170 67 321 116 253 82 282 89
355 89 92 0 179 -25 244 -70 54 -36 120 -108 144 -157 24 -48 258 -782 274
-858 30 -151 -54 -332 -205 -441 l-29 -20 315 -630 c173 -346 323 -654 333
-684 29 -84 27 -262 -5 -355 -45 -136 -141 -266 -253 -343 -24 -16 -121 -68
-215 -116 l-173 -86 548 -1098 c302 -603 1648 -3301 2993 -5994 1344 -2694
2446 -4898 2449 -4898 9 1 209 284 338 479 488 736 890 1556 1173 2389 312
921 487 1839 539 2827 13 245 13 817 0 1060 -28 526 -91 1029 -190 1525 -656
3279 -2867 6056 -5923 7439 -1123 509 -2282 801 -3557 896 -191 15 -982 28
-1140 19z m471 -5294 c27 -8 80 -55 220 -197 237 -241 329 -373 425 -611 41
-101 87 -272 105 -387 21 -129 16 -379 -10 -517 -43 -239 -149 -492 -281 -676
l-60 -83 95 -105 c330 -370 534 -822 596 -1319 16 -128 16 -432 0 -555 -35
-280 -109 -527 -230 -775 -119 -242 -232 -403 -434 -620 -339 -363 -524 -688
-609 -1072 -19 -85 -22 -129 -22 -323 -1 -196 2 -238 21 -322 32 -140 66 -236
134 -373 76 -154 169 -285 289 -406 83 -84 107 -102 190 -142 120 -58 187 -71
337 -65 99 4 131 10 199 35 196 73 335 208 385 375 17 56 21 89 17 177 -3 103
-5 112 -45 192 -49 98 -97 149 -333 349 -169 143 -193 168 -279 281 -112 148
-202 362 -235 558 -20 121 -20 321 0 442 54 320 205 601 484 904 211 229 336
470 386 745 24 132 24 382 0 510 -42 215 -136 431 -256 585 -86 111 -114 165
-105 206 16 70 90 117 159 98 44 -12 289 -263 373 -382 190 -270 303 -627 303
-957 0 -420 -161 -833 -442 -1135 -174 -187 -258 -303 -338 -463 -122 -246
-163 -536 -100 -722 52 -158 182 -383 317 -550 33 -41 142 -154 241 -250 137
-133 189 -192 221 -245 85 -146 122 -319 102 -476 -21 -167 -85 -305 -195
-426 -161 -176 -389 -284 -633 -301 l-102 -7 41 -60 c254 -374 242 -870 -31
-1233 -181 -240 -489 -421 -811 -478 -122 -21 -326 -22 -446 -1 -192 34 -384
116 -538 231 -111 82 -442 410 -456 451 -24 71 40 155 117 155 44 0 65 -12
134 -74 99 -89 260 -173 405 -211 441 -116 968 96 1159 466 67 129 87 216 88
374 1 200 -46 357 -154 516 -67 100 -292 311 -475 446 -184 135 -268 221 -379
388 -281 421 -377 928 -274 1440 44 218 154 493 283 704 105 172 217 315 405
516 321 344 506 725 577 1190 20 134 23 430 5 565 -39 294 -139 589 -282 829
-29 47 -54 88 -56 91 -12 13 -159 -203 -218 -320 -167 -334 -175 -697 -23
-1009 42 -86 133 -216 183 -261 57 -53 70 -118 35 -175 -25 -40 -68 -59 -120
-52 -34 4 -58 23 -170 129 -233 219 -336 366 -418 598 -54 153 -67 237 -67
430 0 194 17 300 77 469 83 236 198 412 452 696 197 220 317 465 361 740 19
116 19 348 0 456 -48 276 -174 531 -369 746 -85 94 -98 129 -71 186 21 44 47
63 105 76 3 0 21 -4 41 -9z m-1482 -2815 c50 -25 76 -108 50 -158 -7 -12 -46
-58 -88 -102 -139 -146 -236 -289 -332 -490 -125 -262 -179 -507 -179 -815 0
-320 64 -593 202 -863 93 -181 186 -310 352 -487 561 -600 756 -1272 560
-1930 -43 -145 -151 -364 -241 -490 -67 -94 -404 -440 -468 -481 -88 -56 -194
13 -182 117 4 36 15 55 77 121 39 43 96 114 125 158 57 85 139 243 150 288 7
25 4 29 -50 53 -145 63 -357 88 -525 60 -243 -40 -434 -139 -616 -320 -188
-187 -307 -414 -370 -706 -26 -119 -27 -429 -1 -547 53 -246 155 -448 316
-624 61 -66 183 -168 247 -205 17 -10 14 -18 -45 -118 -61 -102 -64 -106 -85
-93 -11 7 -94 57 -184 111 -90 54 -196 124 -236 157 -446 358 -650 956 -530
1549 22 107 86 296 139 405 173 360 485 638 848 754 158 50 259 64 437 58 238
-8 377 -50 602 -181 82 -48 130 -70 135 -63 3 6 8 90 11 186 4 146 1 196 -16
296 -62 359 -235 681 -546 1015 -119 127 -249 295 -318 410 -375 623 -408
1405 -89 2057 74 150 176 311 266 419 74 88 252 270 377 385 89 81 101 89 138
89 23 0 54 -7 69 -15z m3914 -4621 c111 -42 234 -92 272 -111 416 -209 708
-605 807 -1096 33 -163 33 -462 0 -625 -67 -334 -199 -589 -412 -802 -243
-243 -527 -375 -857 -396 -183 -12 -324 17 -615 127 -215 81 -233 94 -233 174
0 46 4 58 29 84 43 45 82 48 184 17 350 -106 733 2 1017 289 177 178 286 392
341 670 25 125 25 405 1 528 -54 267 -181 512 -362 692 -105 106 -221 186
-368 255 -111 52 -134 73 -143 131 -9 61 57 139 119 139 9 0 109 -34 220 -76z
m-7223 -2085 c139 -23 345 -87 472 -147 369 -173 690 -497 856 -865 49 -106
162 -293 243 -397 240 -311 561 -516 916 -587 62 -12 136 -17 253 -17 177 0
276 14 412 58 40 13 74 23 75 22 2 -1 -62 -32 -141 -69 -248 -115 -365 -145
-587 -154 -162 -6 -260 4 -406 42 -320 84 -613 288 -833 580 -88 117 -136 197
-230 381 -42 83 -102 189 -132 235 -254 390 -662 665 -1137 766 -115 25 -145
27 -351 27 -206 0 -236 -2 -350 -27 -69 -14 -152 -35 -185 -46 -46 -16 -55
-17 -40 -5 38 30 186 95 303 134 292 97 557 118 862 69z m9856 21 c221 -18
431 -72 617 -159 79 -36 174 -91 132 -76 -70 26 -247 67 -345 81 -156 22 -422
15 -574 -16 -232 -46 -459 -141 -666 -277 -88 -58 -148 -110 -256 -217 -165
-166 -243 -277 -364 -516 -280 -554 -642 -863 -1140 -976 -36 -8 -137 -17
-225 -20 -188 -7 -299 8 -458 59 -91 30 -380 157 -373 164 1 2 36 -8 76 -22
134 -46 231 -59 415 -59 247 1 399 36 620 145 261 129 505 364 677 649 25 41
82 147 127 235 45 88 112 203 149 255 76 107 231 272 330 353 274 223 632 367
982 396 139 12 136 12 276 1z m-11076 -261 c-73 -45 -200 -151 -270 -226 -133
-144 -253 -350 -315 -538 -112 -345 -77 -764 92 -1086 239 -455 761 -706 1256
-603 90 18 90 19 32 -18 -180 -113 -469 -171 -696 -139 -258 37 -477 142 -662
320 -145 139 -229 269 -300 461 -64 174 -82 280 -82 490 0 207 11 280 71 458
114 344 368 643 684 807 145 74 274 125 190 74z m12045 -65 c273 -137 531
-407 653 -686 84 -191 122 -373 123 -578 0 -244 -45 -441 -150 -648 -243 -481
-805 -740 -1316 -607 -93 24 -275 103 -320 138 -18 15 -15 15 35 2 276 -72
600 -21 861 135 254 153 424 371 523 673 48 143 66 264 66 437 0 168 -18 289
-62 430 -99 314 -289 563 -588 772 -39 27 66 -13 175 -68z m-11032 -691 c266
-93 436 -297 498 -598 70 -336 -59 -698 -322 -909 -81 -64 -163 -110 -275
-152 l-66 -25 81 77 c98 92 156 170 211 285 66 139 83 219 84 399 1 130 -3
168 -21 235 -87 318 -307 527 -606 575 -98 16 -231 8 -317 -19 -36 -12 -67
-21 -70 -21 -3 0 38 21 90 46 278 133 321 145 495 141 115 -3 140 -7 218 -34z
m10258 18 c68 -17 393 -160 385 -169 -3 -2 -13 1 -23 6 -34 18 -171 42 -243
42 -211 0 -438 -108 -565 -268 -63 -78 -130 -218 -157 -327 -28 -114 -31 -323
-5 -427 46 -188 142 -354 274 -479 68 -62 74 -71 48 -65 -53 13 -195 84 -259
130 -88 63 -203 189 -255 280 -100 175 -145 387 -123 575 42 360 250 619 564
701 100 26 260 26 359 1z"/>
</g>
</svg>
